<?xml version="1.0" encoding="UTF-8"?>
<svg version="1.1" xmlns="http://www.w3.org/2000/svg" width="500" height="237">
<path d="M0 0 C2.29265204 4.25778236 2.67311086 7.51588101 1.75 12.25 C0.14285226 15.40689734 -1.22438234 17.44415756 -4 19.625 C-9.4127328 21.12853689 -13.91190068 20.47950308 -19.125 18.75 C-24.19217185 17.11568068 -28.95210182 16.37184201 -34.25 17.25 C-37.03198446 18.77520122 -37.03198446 18.77520122 -38.25 21.25 C-38.48901711 23.37907319 -38.48901711 23.37907319 -37.25 25.25 C-32.05744124 28.98864231 -25.82397647 30.56372518 -19.81835938 32.55664062 C-9.09645615 36.18994972 1.67639312 40.83361307 7.25 51.375 C11.0177627 60.22924235 10.92877224 70.77686209 7.8515625 79.8359375 C3.58001807 89.19698167 -4.02666164 95.63816006 -13.375 99.5625 C-27.00438478 104.54684254 -43.70670795 103.01808822 -56.875 97 C-61.23281948 94.54136536 -64.82401847 91.69287598 -67.25 87.25 C-68.06745174 82.07280562 -67.12313616 78.60924107 -64.25 74.25 C-60.55324692 70.88931538 -56.84415212 70.75818432 -52.05078125 70.87890625 C-48.94038598 71.29102278 -46.31697065 72.16652195 -43.375 73.25 C-37.35413435 75.43304935 -31.61813388 76.27592578 -25.25 75.25 C-22.46105527 74.04385353 -22.46105527 74.04385353 -20.25 72.25 C-18.91339855 68.89407137 -18.91339855 68.89407137 -19.25 65.25 C-23.41239342 59.43731844 -29.38493842 58.22488489 -36 56.25 C-47.0428425 52.90450831 -57.88858782 49.5551448 -64.25 39.25 C-67.98202305 30.65012079 -67.75433767 22.18664064 -65.25 13.25 C-63.61020295 9.63427021 -61.82521098 6.28706947 -59.25 3.25 C-58.59 3.25 -57.93 3.25 -57.25 3.25 C-57.25 2.59 -57.25 1.93 -57.25 1.25 C-50.79043352 -5.06521863 -41.86489876 -9.14426511 -32.8515625 -9.78125 C-21.87864139 -9.64944314 -8.1666475 -8.21227122 0 0 Z " fill="#EA1C24" transform="translate(115.25,57.75)"/>
<path d="M0 0 C10.14203239 6.14214665 18.24731569 15.89485398 21.203125 27.55078125 C22.94695277 39.60325462 22.975171 51.84093697 16.64453125 62.6015625 C11.52018523 69.42166859 5.68799373 75.7195713 -2.41796875 78.7890625 C-3.25457031 79.11261719 -4.09117187 79.43617188 -4.953125 79.76953125 C-14.35575686 83.02605253 -24.20301666 82.4486949 -33.35546875 78.6015625 C-45.1414915 72.86076913 -51.45041668 63.47683842 -56.16796875 51.546875 C-59.47936729 40.83082138 -57.86971918 28.66695 -53.35546875 18.6015625 C-42.05182818 -0.5239031 -21.0386559 -10.30347307 0 0 Z M-28.54296875 24.7890625 C-32.3416493 30.68356681 -32.79992548 36.34700072 -31.890625 43.140625 C-30.70719896 48.58265714 -28.73077202 52.3512868 -24.60546875 56.1015625 C-20.61032617 57.94547446 -17.67460497 58.43083666 -13.35546875 57.6015625 C-8.63919976 55.42482296 -6.11661279 52.66504715 -4.05078125 48.00390625 C-1.89750563 40.564218 -2.70306717 33.28751894 -6.2109375 26.4453125 C-8.46139935 22.81999512 -10.30700209 20.95105139 -14.35546875 19.6015625 C-20.83192509 19.12182499 -23.98609006 20.23218381 -28.54296875 24.7890625 Z " fill="#EA1C24" transform="translate(250.35546875,78.3984375)"/>
<path d="M0 0 C12.34534031 6.86938738 19.95909708 16.66095816 23.97265625 30.09765625 C24.78515625 33.84765625 24.78515625 33.84765625 24.97265625 37.09765625 C25.02292969 37.75636719 25.07320313 38.41507813 25.125 39.09375 C25.64748761 50.818372 21.70327243 61.83631768 14.28515625 70.78515625 C6.78682839 78.83788913 -3.37391343 83.05768468 -14.33984375 83.53515625 C-25.14158309 83.16847769 -34.23779739 79.53959608 -42.02734375 72.09765625 C-42.87232422 71.29521484 -42.87232422 71.29521484 -43.734375 70.4765625 C-53.31484717 60.36249441 -54.49774298 48.2991163 -54.3046875 35.109375 C-53.94486572 25.47653424 -50.33674996 18.23923834 -44.02734375 11.09765625 C-43.47949219 10.46859375 -42.93164062 9.83953125 -42.3671875 9.19140625 C-38.40232952 4.92850656 -34.3878082 2.31541703 -29.02734375 0.09765625 C-28.29257812 -0.26070313 -27.5578125 -0.6190625 -26.80078125 -0.98828125 C-19.12959589 -3.51653107 -7.50223785 -3.10786347 0 0 Z M-24.02734375 24.09765625 C-29.22655241 31.02993446 -29.61723273 36.64615592 -29.02734375 45.09765625 C-27.87539621 50.64877353 -25.41444441 54.4782982 -21.02734375 58.09765625 C-16.55308043 59.58907736 -12.70820352 59.84036173 -8.33984375 57.91015625 C-3.85784561 54.39723879 -1.46505797 50.99901885 -0.28125 45.3359375 C0.54362509 38.0643463 -0.70647299 31.08889557 -5.02734375 25.09765625 C-8.27735501 22.14310056 -10.75885861 20.86406327 -15.08984375 20.66015625 C-19.13789333 21.10993954 -20.93300987 21.51904469 -24.02734375 24.09765625 Z " fill="#E91C24" transform="translate(328.02734375,76.90234375)"/>
<path d="M0 0 C3.16129097 2.08357814 4.4108632 3.26772612 5.75 6.8125 C6.32915302 10.83394278 6.11939384 13.91817808 4.5625 17.6875 C1.05171254 21.80359564 -4.18530818 22.42219244 -9.25 23.8125 C-9.58 26.4525 -9.91 29.0925 -10.25 31.8125 C-9.50234375 31.98265625 -8.7546875 32.1528125 -7.984375 32.328125 C-6.99953125 32.57046875 -6.0146875 32.8128125 -5 33.0625 C-4.02546875 33.29453125 -3.0509375 33.5265625 -2.046875 33.765625 C1.11302773 34.94838189 2.62304887 36.21997201 4.75 38.8125 C6.24718643 43.62488495 5.71443188 47.20035559 3.75 51.8125 C0.18763124 55.19675032 -2.71373557 56.0178113 -7.46875 56.4140625 C-8.36529297 56.49221191 -9.26183594 56.57036133 -10.18554688 56.65087891 C-10.86681641 56.70421387 -11.54808594 56.75754883 -12.25 56.8125 C-12.33040527 58.07320312 -12.41081055 59.33390625 -12.49365234 60.6328125 C-12.7956511 65.33725308 -13.10734277 70.04101106 -13.421875 74.74462891 C-13.55633196 76.77538154 -13.6882058 78.80630701 -13.81738281 80.83740234 C-14.00417088 83.76710137 -14.20042748 86.69604058 -14.3984375 89.625 C-14.48138565 90.97392334 -14.48138565 90.97392334 -14.56600952 92.35009766 C-15.09865559 99.99856934 -15.67101098 107.05916757 -21.25 112.8125 C-23.69971624 114.03735812 -25.39234461 113.97972808 -28.125 114 C-29.42050781 114.02126953 -29.42050781 114.02126953 -30.7421875 114.04296875 C-33.47938092 113.79141982 -34.91587923 113.23669803 -37.25 111.8125 C-41.18004827 106.69250979 -41.76319085 101.62652213 -41.23828125 95.39453125 C-41.16676094 94.22587776 -41.16676094 94.22587776 -41.09379578 93.03361511 C-40.93758047 90.56217001 -40.75061338 88.09419996 -40.5625 85.625 C-40.45434574 83.98906552 -40.34821042 82.35299626 -40.24414062 80.71679688 C-39.94262721 76.07965 -39.60269229 71.44600315 -39.25 66.8125 C-39.17214264 65.77944733 -39.17214264 65.77944733 -39.0927124 64.7255249 C-38.81818511 61.08733939 -38.53766962 57.4496693 -38.25 53.8125 C-38.91153076 53.69745117 -39.57306152 53.58240234 -40.25463867 53.46386719 C-46.72509 52.3385713 -46.72509 52.3385713 -49.015625 50.04296875 C-51.18417201 46.12448665 -50.89102476 42.15878878 -50.25 37.8125 C-48.20398195 34.30504048 -46.14578864 32.07290221 -42.25 30.8125 C-39 30.6875 -39 30.6875 -36.25 30.8125 C-36.37375 28.9871875 -36.37375 28.9871875 -36.5 27.125 C-36.48827765 19.71647391 -34.50328755 11.26456032 -30 5.25 C-21.75124353 -2.06139778 -10.59067956 -3.9291647 0 0 Z " fill="#E71D25" transform="translate(399.25,44.1875)"/>
<path d="M0 0 C8.64308752 0.42161403 17.68110911 1.77366575 23.91796875 8.2734375 C25.86096364 10.90915231 26.26664973 12.1671691 26.85546875 15.5234375 C26.12070829 19.56462005 24.81176874 21.78962608 22.23046875 24.9609375 C18.83571388 27.22410741 18.16245363 27.13139576 14.29296875 26.6484375 C13.43832031 26.54917969 12.58367187 26.44992188 11.703125 26.34765625 C9.23046875 25.9609375 9.23046875 25.9609375 7.19140625 25.43359375 C2.49357962 24.30124908 -2.20937969 24.28261073 -6.64453125 26.2109375 C-11.46607432 30.18162003 -12.59690525 34.06089827 -13.54296875 40.08203125 C-14.07288354 46.8156036 -12.32224252 52.30859431 -8.11328125 57.58203125 C-6.07904472 59.66948908 -4.64727369 60.42554356 -1.76953125 60.9609375 C2.66625456 60.7427841 6.14210439 60.08518901 10.23046875 58.3984375 C14.49664963 56.70537554 17.64420306 56.43464472 22.23046875 56.9609375 C25.29095087 58.75730744 26.80119378 60.23897505 28.60546875 63.2734375 C29.44266379 66.87337615 29.12586476 69.37935347 28.23046875 72.9609375 C25.45229752 77.12173348 22.72062193 79.07811474 18.23046875 81.2109375 C17.19921875 81.71109375 16.16796875 82.21125 15.10546875 82.7265625 C6.47132689 86.43361254 -5.6515578 86.63902258 -14.45703125 83.2109375 C-15.91454536 82.50061443 -17.35585032 81.75492268 -18.76953125 80.9609375 C-19.80078125 80.4040625 -20.83203125 79.8471875 -21.89453125 79.2734375 C-32.0031315 71.14260686 -38.358855 60.92756437 -39.76953125 47.9609375 C-40.89894628 35.32886475 -37.79898789 23.85680537 -29.76953125 13.9609375 C-29.26808594 13.33574219 -28.76664063 12.71054688 -28.25 12.06640625 C-22.81828194 6.00032695 -14.86077479 1.35790147 -6.76953125 0.0234375 C-4.50653128 -0.0983803 -2.26666316 -0.03196986 0 0 Z " fill="#EA1C24" transform="translate(167.76953125,74.0390625)"/>
<path d="M0 0 C3.7913653 2.36066141 5.62379988 3.91557973 7.09765625 8.1640625 C8.64327642 15.07652849 8.76243037 22.25898384 9.125 29.3125 C9.16569611 30.07968353 9.20639221 30.84686707 9.24832153 31.63729858 C9.53379472 37.09018343 9.78033357 42.54408512 10 48 C10.04281097 49.0533252 10.04281097 49.0533252 10.08648682 50.12792969 C10.25820061 54.52254539 10.36582998 58.91520724 10.4375 63.3125 C10.47182129 64.41311768 10.50614258 65.51373535 10.54150391 66.64770508 C10.5874294 74.95300255 10.5874294 74.95300255 7.59765625 78.66796875 C3.50235449 82.34450281 0.82572917 82.2956178 -4.5234375 82.203125 C-7.89329997 81.92673249 -9.55464332 81.37125497 -12 79 C-15.15259716 72.26475005 -15.61875035 66.02092276 -15.94921875 58.65234375 C-16.01156204 57.48167862 -16.07390533 56.31101349 -16.13813782 55.10487366 C-16.33324647 51.38291909 -16.51040498 47.6603505 -16.6875 43.9375 C-16.81722537 41.43158166 -16.94807342 38.92572118 -17.08007812 36.41992188 C-18.47498043 9.39221101 -18.47498043 9.39221101 -15 4 C-9.99451406 -0.63007449 -6.67976054 -1.58502793 0 0 Z " fill="#E81C25" transform="translate(427,76)"/>
<path d="M0 0 C3.29637933 2.66515776 6.66975609 5.70973706 7.30078125 10.0859375 C7.32540199 14.89518867 7.1909901 18.14880506 4 22 C-0.38479834 25.85006683 -2.95905681 27.3606608 -8.90234375 27.28515625 C-13.14349853 26.70861193 -15.88606493 24.11393507 -18.8125 21.1875 C-20.52125109 18.03980063 -20.87865751 15.57960359 -21 12 C-19.17651766 6.33760747 -16.91826766 2.75096059 -11.8125 -0.3125 C-7.70670437 -1.31613893 -4.0690971 -1.1594342 0 0 Z " fill="#EA1C25" transform="translate(427,45)"/>
<path d="M0 0 C3.7913653 2.36066141 5.62379988 3.91557973 7.09765625 8.1640625 C8.64327642 15.07652849 8.76243037 22.25898384 9.125 29.3125 C9.16569611 30.07968353 9.20639221 30.84686707 9.24832153 31.63729858 C9.53379472 37.09018343 9.78033357 42.54408512 10 48 C10.04281097 49.0533252 10.04281097 49.0533252 10.08648682 50.12792969 C10.25820061 54.52254539 10.36582998 58.91520724 10.4375 63.3125 C10.47182129 64.41311768 10.50614258 65.51373535 10.54150391 66.64770508 C10.5874294 74.95300255 10.5874294 74.95300255 7.59765625 78.66796875 C3.50235449 82.34450281 0.82572917 82.2956178 -4.5234375 82.203125 C-7.89329997 81.92673249 -9.55464332 81.37125497 -12 79 C-15.15259716 72.26475005 -15.61875035 66.02092276 -15.94921875 58.65234375 C-16.01156204 57.48167862 -16.07390533 56.31101349 -16.13813782 55.10487366 C-16.33324647 51.38291909 -16.51040498 47.6603505 -16.6875 43.9375 C-16.81722537 41.43158166 -16.94807342 38.92572118 -17.08007812 36.41992188 C-18.47498043 9.39221101 -18.47498043 9.39221101 -15 4 C-9.99451406 -0.63007449 -6.67976054 -1.58502793 0 0 Z M-10 4 C-10.99 4.33 -11.98 4.66 -13 5 C-13.99 5.495 -13.99 5.495 -15 6 C-15.46651207 8.12576782 -15.46651207 8.12576782 -15.625 10.5625 C-15.69976562 11.38878906 -15.77453125 12.21507813 -15.8515625 13.06640625 C-15.90054687 13.70449219 -15.94953125 14.34257813 -16 15 C-15.01 15.33 -14.02 15.66 -13 16 C-12.97314062 18.14576637 -12.95366912 20.29162645 -12.9375 22.4375 C-12.92589844 23.63246094 -12.91429687 24.82742187 -12.90234375 26.05859375 C-13 29 -13 29 -14 30 C-14.09919077 31.60163916 -14.12969898 33.20779918 -14.125 34.8125 C-14.12757813 35.68519531 -14.13015625 36.55789062 -14.1328125 37.45703125 C-14.09870569 39.89403572 -14.09870569 39.89403572 -13.50927734 41.7512207 C-12.84291792 44.69361603 -12.7977899 47.50772885 -12.71875 50.5234375 C-12.68136719 51.791875 -12.64398438 53.0603125 -12.60546875 54.3671875 C-12.56983101 55.70311224 -12.53467895 57.03905002 -12.5 58.375 C-12.43085666 60.98708178 -12.35806963 63.59907021 -12.28125 66.2109375 C-12.25095703 67.36899902 -12.22066406 68.52706055 -12.18945312 69.72021484 C-12.00694843 72.87970978 -11.58218263 75.89168686 -11 79 C-9.33333333 79.33333333 -7.66666667 79.66666667 -6 80 C-5.195625 80.226875 -4.39125 80.45375 -3.5625 80.6875 C-0.12389924 81.10684156 1.87011805 80.46505112 5 79 C7.94193565 76.14303 8.93207839 74.56580573 9.42578125 70.453125 C9.40986903 69.0516649 9.37047581 67.65035082 9.3125 66.25 C9.29558105 65.477771 9.27866211 64.70554199 9.26123047 63.90991211 C9.19559187 61.27222224 9.09748422 58.63669398 9 56 C8.94323221 53.97528209 8.8872723 51.95054139 8.83203125 49.92578125 C8.52823811 39.98883047 8.05240473 30.08170436 7.0625 20.1875 C6.98789551 19.41156494 6.91329102 18.63562988 6.83642578 17.83618164 C6.43482458 14.18933062 5.96930597 11.13935387 4 8 C3.34 8 2.68 8 2 8 C2 6.68 2 5.36 2 4 C-2.51009946 1.32734847 -5.58719908 1.05813272 -10 4 Z " fill="#AB3642" transform="translate(427,76)"/>
<path d="M0 0 C2.72964114 2.74489053 3.49198599 5.42781859 3.7109375 9.15625 C3.44987434 13.57940575 2.1039815 16.29021378 -0.8515625 19.65625 C-4.3466689 22.40240503 -8.60122563 22.16189352 -12.8515625 21.65625 C-14.48763495 21.19376547 -16.11286695 20.69161126 -17.7265625 20.15625 C-22.79373435 18.52193068 -27.55366432 17.77809201 -32.8515625 18.65625 C-35.63354696 20.18145122 -35.63354696 20.18145122 -36.8515625 22.65625 C-37.09057961 24.78532319 -37.09057961 24.78532319 -35.8515625 26.65625 C-31.59676616 29.65769548 -26.92276156 31.18583037 -22.0390625 32.84375 C-20.85666992 33.25270508 -20.85666992 33.25270508 -19.65039062 33.66992188 C-17.71918029 34.33706726 -15.78560299 34.99735418 -13.8515625 35.65625 C-14.1815625 36.31625 -14.5115625 36.97625 -14.8515625 37.65625 C-15.39683594 37.46289062 -15.94210938 37.26953125 -16.50390625 37.0703125 C-20.49150048 35.69339962 -24.40001026 34.48687613 -28.5390625 33.65625 C-32.35341831 32.83603013 -35.55252725 31.82878541 -38.8515625 29.65625 C-40.33278828 27.14460629 -40.8798264 25.56069489 -40.7890625 22.65625 C-38.72649386 18.25610356 -35.83820535 16.02624107 -31.3515625 14.34375 C-26.18478842 13.32884795 -22.81336727 13.4141821 -17.9765625 15.53125 C-13.96853484 17.22326168 -10.05821488 18.55886242 -5.8515625 19.65625 C-5.8515625 18.99625 -5.8515625 18.33625 -5.8515625 17.65625 C-4.8615625 17.32625 -3.8715625 16.99625 -2.8515625 16.65625 C-1.36273812 12.58157275 -0.58886033 8.99083585 -0.8515625 4.65625 C-3.1615625 3.33625 -5.4715625 2.01625 -7.8515625 0.65625 C-7.8515625 -0.00375 -7.8515625 -0.66375 -7.8515625 -1.34375 C-17.51210283 -4.3033375 -26.83078881 -4.99943432 -36.8515625 -5.34375 C-36.8515625 -6.00375 -36.8515625 -6.66375 -36.8515625 -7.34375 C-24.68362474 -9.8270026 -10.14779081 -7.36464143 0 0 Z " fill="#C7202A" transform="translate(113.8515625,56.34375)"/>
<path d="M0 0 C1.18613892 0.00785522 1.18613892 0.00785522 2.39624023 0.01586914 C3.16524658 0.0183667 3.93425293 0.02086426 4.7265625 0.0234375 C5.70939209 0.0325415 6.69222168 0.04164551 7.70483398 0.05102539 C12.37639648 0.08196289 12.37639648 0.08196289 17.14233398 0.11352539 C17.14233398 6.38352539 17.14233398 12.65352539 17.14233398 19.11352539 C13.81406089 20.77766194 10.14499425 19.93219945 6.51733398 19.67602539 C5.71553711 19.62381836 4.91374023 19.57161133 4.08764648 19.51782227 C2.10554295 19.38804168 0.123889 19.25142804 -1.85766602 19.11352539 C-3.05592059 15.51876167 -3.00375346 12.2280314 -2.98266602 8.48852539 C-2.9865332 7.79500977 -2.99040039 7.10149414 -2.99438477 6.38696289 C-2.98226619 0.18225178 -2.98226619 0.18225178 0 0 Z M1.14233398 3.11352539 C1.47233398 4.10352539 1.80233398 5.09352539 2.14233398 6.11352539 C2.80233398 5.12352539 3.46233398 4.13352539 4.14233398 3.11352539 C3.15233398 3.11352539 2.16233398 3.11352539 1.14233398 3.11352539 Z M10.14233398 3.11352539 C11.13233398 5.09352539 12.12233398 7.07352539 13.14233398 9.11352539 C13.47233398 9.11352539 13.80233398 9.11352539 14.14233398 9.11352539 C14.14233398 7.13352539 14.14233398 5.15352539 14.14233398 3.11352539 C12.82233398 3.11352539 11.50233398 3.11352539 10.14233398 3.11352539 Z M0.14233398 7.11352539 C1.14233398 11.11352539 1.14233398 11.11352539 1.14233398 11.11352539 Z M1.14233398 13.11352539 C1.14233398 14.10352539 1.14233398 15.09352539 1.14233398 16.11352539 C2.46233398 15.78352539 3.78233398 15.45352539 5.14233398 15.11352539 C3.82233398 14.45352539 2.50233398 13.79352539 1.14233398 13.11352539 Z M13.14233398 13.11352539 C12.48233398 13.77352539 11.82233398 14.43352539 11.14233398 15.11352539 C12.13233398 15.44352539 13.12233398 15.77352539 14.14233398 16.11352539 C13.81233398 15.12352539 13.48233398 14.13352539 13.14233398 13.11352539 Z " fill="#59AC65" transform="translate(446.857666015625,47.886474609375)"/>
<path d="M0 0 C0.99 0.33 1.98 0.66 3 1 C3 1.66 3 2.32 3 3 C3.61875 2.690625 4.2375 2.38125 4.875 2.0625 C10.2363554 0.23963916 15.25325014 -1.17891476 20.6484375 1.13671875 C23.03499195 2.6311385 25.08000451 3.93623673 27 6 C27 7.32 27 8.64 27 10 C27.66 10 28.32 10 29 10 C29 10.66 29 11.32 29 12 C29.66 12 30.32 12 31 12 C31.99882891 19.32875667 32.54965089 24.42657243 29 31 C28.731875 32.03125 28.46375 33.0625 28.1875 34.125 C26.60524222 37.95572936 24.70002073 40.22087126 21 42 C15.53261608 43.22079942 10.75899272 43.61719043 5.4375 41.75 C1.35458151 38.8186739 -0.3543919 36.80399685 -2 32 C-2.40744544 28.0073969 -2.32446714 24.01138395 -2.3125 20 C-2.32861328 18.91976562 -2.34472656 17.83953125 -2.36132812 16.7265625 C-2.36197266 15.68242188 -2.36261719 14.63828125 -2.36328125 13.5625 C-2.36626221 12.61503906 -2.36924316 11.66757813 -2.37231445 10.69140625 C-1.93561262 7.5345531 -0.63169193 5.69855659 1 3 C0.67 2.01 0.34 1.02 0 0 Z M4 5 C-1.19920866 11.93227821 -1.58988898 17.54849967 -1 26 C0.15194754 31.55111728 2.61289934 35.38064195 7 39 C11.47426332 40.49142111 15.31914023 40.74270548 19.6875 38.8125 C24.16949814 35.29958254 26.56228578 31.9013626 27.74609375 26.23828125 C28.57096884 18.96669005 27.32087076 11.99123932 23 6 C19.74998874 3.04544431 17.26848514 1.76640702 12.9375 1.5625 C8.88945042 2.01228329 7.09433388 2.42138844 4 5 Z " fill="#B9323D" transform="translate(300,96)"/>
<path d="M0 0 C6.18999568 5.54114917 8.39794911 13.87231301 9 22 C9.0515625 22.66128906 9.103125 23.32257813 9.15625 24.00390625 C9.65974168 35.73106658 5.73395393 46.73463495 -1.6875 55.6875 C-9.18582786 63.74023288 -19.34656968 67.96002843 -30.3125 68.4375 C-39.87171108 68.13919838 -48.67621216 65.13154331 -56 59 C-52.265625 57.8984375 -52.265625 57.8984375 -49.875 58.8125 C-48 60 -48 60 -46 62 C-41.13718552 65.24187632 -36.91741221 65.21355362 -31.25 65.25 C-30.46367187 65.270625 -29.67734375 65.29125 -28.8671875 65.3125 C-23.48509058 65.34826144 -19.74313094 64.60264108 -15 62 C-14.34 61.01 -13.68 60.02 -13 59 C-11.68 59 -10.36 59 -9 59 C-9.33 58.01 -9.66 57.02 -10 56 C-9.01 55.67 -8.02 55.34 -7 55 C-6.67 53.02 -6.34 51.04 -6 49 C-4.35 49.66 -2.7 50.32 -1 51 C-1 49.35 -1 47.7 -1 46 C0.98 45.505 0.98 45.505 3 45 C3.69633467 41.00452632 4.35905046 37.00472984 5 33 C5.14050781 32.14535156 5.28101563 31.29070312 5.42578125 30.41015625 C6.10544733 25.61973872 5.79484175 22.58681782 4 18 C3.835 16.7625 3.67 15.525 3.5 14.25 C3.31584196 10.92159951 3.31584196 10.92159951 1 9 C0.95745644 7.00045254 0.95919217 4.99958364 1 3 C0.505 1.515 0.505 1.515 0 0 Z " fill="#B2333E" transform="translate(344,92)"/>
<path d="M0 0 C0.99 0 1.98 0 3 0 C3 0.66 3 1.32 3 2 C3.66 2 4.32 2 5 2 C4.68305176 3.12792969 4.36610352 4.25585938 4.03955078 5.41796875 C2.88492383 10.05224633 2.56313741 14.55349708 2.3671875 19.3125 C2.32562531 20.16682617 2.28406311 21.02115234 2.24124146 21.90136719 C2.11163851 24.60061972 1.9931363 27.30022382 1.875 30 C1.78849695 31.84248264 1.70126438 33.68493119 1.61328125 35.52734375 C1.40042129 40.01787918 1.19750768 44.50876421 1 49 C1.66 49 2.32 49 3 49 C3.99 51.64 4.98 54.28 6 57 C11.32170494 57.29562367 11.32170494 57.29562367 16 55 C16.99 55 17.98 55 19 55 C19.99 48.07 20.98 41.14 22 34 C22.33 34 22.66 34 23 34 C23.49027237 50.34241245 23.49027237 50.34241245 19 56.9375 C16.8023782 59.20379748 15.88537711 59.93367384 12.7578125 60.16796875 C11.45457031 60.17763672 11.45457031 60.17763672 10.125 60.1875 C9.26132812 60.20167969 8.39765625 60.21585938 7.5078125 60.23046875 C4.77061908 59.97891982 3.33412077 59.42419803 1 58 C-2.93004827 52.88000979 -3.51319085 47.81402213 -2.98828125 41.58203125 C-2.91676094 40.41337776 -2.91676094 40.41337776 -2.84379578 39.22111511 C-2.68758047 36.74967001 -2.50061338 34.28169996 -2.3125 31.8125 C-2.20434574 30.17656552 -2.09821042 28.54049626 -1.99414062 26.90429688 C-1.69262721 22.26715 -1.35269229 17.63350315 -1 13 C-0.94809509 12.31129822 -0.89619019 11.62259644 -0.8427124 10.9130249 C-0.56818511 7.27483939 -0.28766962 3.6371693 0 0 Z " fill="#BB2433" transform="translate(361,98)"/>
<path d="M0 0 C-3 1 -3 1 -5.6875 0.0625 C-10.10582524 -1.35469866 -14.37520971 -1.68518622 -18.9453125 -0.4921875 C-21.27930606 0.06690601 -23.35342873 0.0977437 -25.75 0.0625 C-26.54921875 0.05347656 -27.3484375 0.04445313 -28.171875 0.03515625 C-28.77515625 0.02355469 -29.3784375 0.01195313 -30 0 C-30.66 1.32 -31.32 2.64 -32 4 C-32.99 4 -33.98 4 -35 4 C-35.268125 4.598125 -35.53625 5.19625 -35.8125 5.8125 C-38.41067277 10.59860773 -42.34173851 12.45113994 -47 15 C-46.79375 15.78375 -46.5875 16.5675 -46.375 17.375 C-46.25125 18.24125 -46.1275 19.1075 -46 20 C-46.66 20.66 -47.32 21.32 -48 22 C-48.144375 22.639375 -48.28875 23.27875 -48.4375 23.9375 C-49 26 -49 26 -50.51025391 27.32958984 C-52.48970515 29.54909253 -52.38670223 30.84574387 -52.3984375 33.7890625 C-52.40230469 34.73136719 -52.40617188 35.67367187 -52.41015625 36.64453125 C-52.39855469 37.62808594 -52.38695312 38.61164063 -52.375 39.625 C-52.38660156 40.58535156 -52.39820313 41.54570313 -52.41015625 42.53515625 C-52.38685822 48.25870475 -51.69468329 52.91641905 -49.54541016 58.23583984 C-49 60 -49 60 -50 62 C-50.81917642 60.27398621 -51.63006016 58.5440353 -52.4375 56.8125 C-52.88996094 55.84957031 -53.34242188 54.88664062 -53.80859375 53.89453125 C-57.93844774 43.86101713 -56.86736961 32.17201619 -53.39453125 22.109375 C-48.28989285 10.72760423 -40.101182 2.43434058 -28.5234375 -2.0859375 C-19.24170378 -4.49383738 -8.6239326 -4.40371026 0 0 Z " fill="#C32E3A" transform="translate(249,78)"/>
<path d="M0 0 C3.29637933 2.66515776 6.66975609 5.70973706 7.30078125 10.0859375 C7.32540199 14.89518867 7.1909901 18.14880506 4 22 C-0.38479834 25.85006683 -2.95905681 27.3606608 -8.90234375 27.28515625 C-13.14349853 26.70861193 -15.88606493 24.11393507 -18.8125 21.1875 C-20.52125109 18.03980063 -20.87865751 15.57960359 -21 12 C-19.17651766 6.33760747 -16.91826766 2.75096059 -11.8125 -0.3125 C-7.70670437 -1.31613893 -4.0690971 -1.1594342 0 0 Z M-15 3 C-15.33 4.65 -15.66 6.3 -16 8 C-16.66 8 -17.32 8 -18 8 C-18.29162929 12.95769796 -18.12940055 16.02806853 -15 20 C-14.34 20 -13.68 20 -13 20 C-12.34 21.32 -11.68 22.64 -11 24 C-7.7 24 -4.4 24 -1 24 C-0.67 23.01 -0.34 22.02 0 21 C2.0625 19.8125 2.0625 19.8125 4 19 C4.48404141 13.48192796 4.28596898 9.83704703 0.76171875 5.4140625 C-3.62645842 1.89184491 -9.74647109 1.34993087 -15 3 Z " fill="#BD323E" transform="translate(427,45)"/>
<path d="M0 0 C0.33 0.99 0.66 1.98 1 3 C-0.26220093 5.04563599 -1.60287726 7.04402816 -3 9 C-3.69429379 10.3191582 -4.37530495 11.64649406 -5 13 C-5.99 13 -6.98 13 -8 13 C-8.7892089 18.62311342 -9.15686145 24.19834247 -9.25 29.875 C-9.27578125 31.15117188 -9.3015625 32.42734375 -9.328125 33.7421875 C-9.31063444 36.96131551 -9.31063444 36.96131551 -7.53125 38.765625 C-7.0259375 39.17296875 -6.520625 39.5803125 -6 40 C-4.95816738 43.99369172 -4.94633743 47.01949697 -6 51 C-5.01 51.66 -4.02 52.32 -3 53 C-1.8030009 56.46499741 -1 59.32780758 -1 63 C-10.02216245 52.73602306 -13.42892505 41.86400969 -13.27734375 28.2890625 C-12.35866206 17.39427405 -7.90959602 7.55753685 0 0 Z " fill="#C52A36" transform="translate(141,85)"/>
<path d="M0 0 C0.99 0.33 1.98 0.66 3 1 C3.19393875 3.14526099 3.37998676 5.29123677 3.5625 7.4375 C3.66691406 8.63246094 3.77132813 9.82742187 3.87890625 11.05859375 C3.91886719 12.02925781 3.95882813 12.99992187 4 14 C3.67 14.33 3.34 14.66 3 15 C2.90080923 16.60163916 2.87030102 18.20779918 2.875 19.8125 C2.87242187 20.68519531 2.86984375 21.55789062 2.8671875 22.45703125 C2.90114255 24.89372099 2.90114255 24.89372099 3.49072266 26.74902344 C4.1591247 29.70332201 4.20232993 32.53087578 4.28125 35.55859375 C4.31863281 36.83154297 4.35601562 38.10449219 4.39453125 39.41601562 C4.43018149 40.75649737 4.4653331 42.09699246 4.5 43.4375 C4.56803758 46.06139801 4.64177825 48.68491878 4.71875 51.30859375 C4.74904297 52.47189209 4.77933594 53.63519043 4.81054688 54.83374023 C4.97954161 57.65808659 5.36240781 60.24860901 6 63 C5.01 63.495 5.01 63.495 4 64 C-2.20166651 50.78775396 -0.12875484 33.8422926 -0.0625 19.5625 C-0.05747031 17.65560015 -0.05291003 15.74869899 -0.04882812 13.84179688 C-0.03794957 9.22783178 -0.02076764 4.61393075 0 0 Z " fill="#D92230" transform="translate(411,91)"/>
<path d="M0 0 C3.21618383 0.05178113 5.55888425 0.16548789 8.1875 2.1875 C10.22191582 4.80317749 10.1875 6.32726562 10.1875 9.6875 C9.1875 13.1875 9.1875 13.1875 6.5625 15.6875 C2.53690482 17.47665341 0.40687765 17.26302764 -3.8125 16.1875 C-4.8125 15.1875 -4.8125 15.1875 -4.9453125 12.0625 C-4.94273437 10.78375 -4.94015625 9.505 -4.9375 8.1875 C-4.94007813 6.90875 -4.94265625 5.63 -4.9453125 4.3125 C-4.75180858 -0.24053351 -4.69799112 0.23104874 0 0 Z M1.1875 4.1875 C-0.22827477 5.37174326 -0.22827477 5.37174326 0.125 8.75 C0.145625 9.884375 0.16625 11.01875 0.1875 12.1875 C1.5075 12.1875 2.8275 12.1875 4.1875 12.1875 C4.5175 10.2075 4.8475 8.2275 5.1875 6.1875 C3.8675 5.5275 2.5475 4.8675 1.1875 4.1875 Z " fill="#312E32" transform="translate(149.8125,180.8125)"/>
<path d="M0 0 C2.45988949 2.69050412 2.92496621 4.47476344 3.4375 8.0625 C3 11 3 11 1.3125 13.3125 C-1.3356884 15.24496181 -2.72004329 15.92190579 -6 16 C-11.2 13.8 -11.2 13.8 -13 12 C-13.16796875 10.0390625 -13.16796875 10.0390625 -13.1875 7.625 C-13.20167969 6.83351562 -13.21585938 6.04203125 -13.23046875 5.2265625 C-13 3 -13 3 -11 0 C-7.09649495 -1.30116835 -3.94054678 -1.19037351 0 0 Z M-6 3 C-6.99 3.66 -7.98 4.32 -9 5 C-8.67 6.98 -8.34 8.96 -8 11 C-6.02 10.67 -4.04 10.34 -2 10 C-1.67 8.68 -1.34 7.36 -1 6 C-2.65 5.01 -4.3 4.02 -6 3 Z " fill="#1D1C1E" transform="translate(266,182)"/>
<path d="M0 0 C3.56368215 0.17818411 5.70990598 0.36344359 8.75 2.1875 C10.5251901 5.09235652 10.7555974 6.90763013 10.6875 10.3125 C9.75 13.1875 9.75 13.1875 7.375 15 C2.22842402 17.32821295 2.22842402 17.32821295 -1.4375 16.25 C-2.365625 15.899375 -3.29375 15.54875 -4.25 15.1875 C-4.27685412 12.87506208 -4.29632841 10.5625373 -4.3125 8.25 C-4.32410156 6.96222656 -4.33570313 5.67445313 -4.34765625 4.34765625 C-4.22082847 0.24350933 -4.22082847 0.24350933 0 0 Z M0.75 4.1875 C0.42 6.4975 0.09 8.8075 -0.25 11.1875 C2.79913228 12.19861093 2.79913228 12.19861093 5.75 11.1875 C5.42 9.2075 5.09 7.2275 4.75 5.1875 C3.43 4.8575 2.11 4.5275 0.75 4.1875 Z " fill="#2D2A2E" transform="translate(170.25,180.8125)"/>
<path d="M0 0 C3.15559798 3.15559798 2.95481251 6.33348452 3.25 10.6875 C3.1675 11.780625 3.085 12.87375 3 14 C-0.68917999 16.45945333 -3.71699557 16.6807995 -8 16 C-10.5 14.4375 -10.5 14.4375 -12 12 C-12.72125695 7.59231863 -12.52001338 5.74062512 -9.9375 2.0625 C-6.31361351 -0.48193094 -4.34125236 -0.57337295 0 0 Z M-6 4 C-8.30671915 6.71549154 -8.30671915 6.71549154 -7.625 9.1875 C-7.41875 9.785625 -7.2125 10.38375 -7 11 C-5.35 11.33 -3.7 11.66 -2 12 C-2.33 11.34 -2.66 10.68 -3 10 C-3.66 10 -4.32 10 -5 10 C-3.33333333 8.33333333 -1.66666667 6.66666667 0 5 C-2.97 4.505 -2.97 4.505 -6 4 Z " fill="#232124" transform="translate(113,181)"/>
<path d="M0 0 C3.76991795 0.70685962 5.40418092 1.74418215 8 4.5625 C9.25610015 8.2522942 9.34352813 9.82636829 7.6875 13.375 C6 15.5625 6 15.5625 4 16.5625 C-0.37362014 17.05762681 -2.31955244 17.05473866 -5.9375 14.4375 C-8 11.5625 -8 11.5625 -8.625 8.5625 C-7.58351809 3.56338683 -5.03644185 0.94433285 0 0 Z M-2 5.5625 C-2.66 6.8825 -3.32 8.2025 -4 9.5625 C-3.01 11.0475 -3.01 11.0475 -2 12.5625 C0.58380177 12.81280977 0.58380177 12.81280977 3 12.5625 C3.38133299 10.5710944 3.71325582 8.56970923 4 6.5625 C2.93354885 5.26616379 2.93354885 5.26616379 0.4375 5.5 C-0.366875 5.520625 -1.17125 5.54125 -2 5.5625 Z " fill="#222024" transform="translate(130,180.4375)"/>
<path d="M0 0 C1.51400391 0.01740234 1.51400391 0.01740234 3.05859375 0.03515625 C4.07050781 0.04417969 5.08242187 0.05320313 6.125 0.0625 C7.29869141 0.07990234 7.29869141 0.07990234 8.49609375 0.09765625 C8.49609375 1.41765625 8.49609375 2.73765625 8.49609375 4.09765625 C6.18609375 4.42765625 3.87609375 4.75765625 1.49609375 5.09765625 C3.47609375 5.75765625 5.45609375 6.41765625 7.49609375 7.09765625 C7.49609375 8.08765625 7.49609375 9.07765625 7.49609375 10.09765625 C5.84609375 10.42765625 4.19609375 10.75765625 2.49609375 11.09765625 C4.80609375 11.75765625 7.11609375 12.41765625 9.49609375 13.09765625 C9.16609375 14.08765625 8.83609375 15.07765625 8.49609375 16.09765625 C7.06074534 16.32033085 5.6226385 16.52527531 4.18359375 16.72265625 C2.98283203 16.89667969 2.98283203 16.89667969 1.7578125 17.07421875 C-0.50390625 17.09765625 -0.50390625 17.09765625 -3.50390625 15.09765625 C-3.83203125 11.875 -3.83203125 11.875 -3.75390625 8.03515625 C-3.7384375 6.76542969 -3.72296875 5.49570313 -3.70703125 4.1875 C-3.44056823 0.13418753 -3.44056823 0.13418753 0 0 Z " fill="#333034" transform="translate(190.50390625,180.90234375)"/>
<path d="M0 0 C1.51400391 0.01740234 1.51400391 0.01740234 3.05859375 0.03515625 C4.07050781 0.04417969 5.08242188 0.05320313 6.125 0.0625 C7.29869141 0.07990234 7.29869141 0.07990234 8.49609375 0.09765625 C8.82609375 1.41765625 9.15609375 2.73765625 9.49609375 4.09765625 C6.85609375 4.09765625 4.21609375 4.09765625 1.49609375 4.09765625 C1.49609375 4.75765625 1.49609375 5.41765625 1.49609375 6.09765625 C3.47609375 6.09765625 5.45609375 6.09765625 7.49609375 6.09765625 C7.49609375 7.41765625 7.49609375 8.73765625 7.49609375 10.09765625 C3.74609375 11.22265625 3.74609375 11.22265625 1.49609375 10.09765625 C1.49609375 10.75765625 1.49609375 11.41765625 1.49609375 12.09765625 C3.80609375 12.09765625 6.11609375 12.09765625 8.49609375 12.09765625 C8.49609375 13.41765625 8.49609375 14.73765625 8.49609375 16.09765625 C0.68964214 17.44877288 0.68964214 17.44877288 -2.50390625 16.09765625 C-3.93707523 13.2313183 -3.63590986 10.72530124 -3.62890625 7.53515625 C-3.63148438 6.35824219 -3.6340625 5.18132812 -3.63671875 3.96875 C-3.45937155 0.13492089 -3.45937155 0.13492089 0 0 Z " fill="#1A191B" transform="translate(381.50390625,180.90234375)"/>
<path d="M0 0 C8.76719314 2.12109512 15.31340844 6.64474068 20.484375 14.15625 C24.96810777 22.60386247 25.26641609 32.95221391 22.9375 42.125 C21.12893822 47.55938036 17.91155962 51.86222971 14 56 C13.01 56.495 13.01 56.495 12 57 C13.20381448 54.50638429 14.45428722 52.31856917 16 50 C15.34 50 14.68 50 14 50 C15.30574169 47.08719163 16.7074208 45.19705507 19 43 C21.03094922 39.95357617 21.25035189 39.36443332 21.23046875 35.9453125 C21.22756836 34.77548828 21.22756836 34.77548828 21.22460938 33.58203125 C21.21236328 32.77121094 21.20011719 31.96039063 21.1875 31.125 C21.18685547 30.32191406 21.18621094 29.51882812 21.18554688 28.69140625 C21.15573748 24.67045051 20.99256835 20.92263011 20 17 C19.34 17 18.68 17 18 17 C17.34 16.01 16.68 15.02 16 14 C14.35 14.33 12.7 14.66 11 15 C11.33 13.35 11.66 11.7 12 10 C9.9316316 8.3009831 8.44788522 7.10237376 5.8125 6.5 C5.214375 6.335 4.61625 6.17 4 6 C3.67 5.01 3.34 4.02 3 3 C1.50014391 1.33289654 1.50014391 1.33289654 0 0 Z " fill="#B8434A" transform="translate(101,93)"/>
<path d="M0 0 C0.33 0.99 0.66 1.98 1 3 C0 4 0 4 -2.5625 4.0625 C-3.7690625 4.0315625 -3.7690625 4.0315625 -5 4 C-3.87583361 5.23267071 -3.87583361 5.23267071 -1.4375 6.25 C1 8 1 8 1.625 10.5 C1 13 1 13 -1.125 14.875 C-4.55421722 16.21686761 -6.47879408 15.90077361 -10 15 C-10.33 13.35 -10.66 11.7 -11 10 C-9.02 10 -7.04 10 -5 10 C-6.98 9.01 -8.96 8.02 -11 7 C-11.1875 4.125 -11.1875 4.125 -11 1 C-6.8204355 -1.78637633 -4.85331323 -0.79562512 0 0 Z " fill="#1C1B1E" transform="translate(353,182)"/>
<path d="M0 0 C3.63 0 7.26 0 11 0 C11.33 1.32 11.66 2.64 12 4 C11.01 4.33 10.02 4.66 9 5 C9 5.66 9 6.32 9 7 C9.66 7 10.32 7 11 7 C11 7.99 11 8.98 11 10 C8.69 10.33 6.38 10.66 4 11 C3.67 12.65 3.34 14.3 3 16 C2.01 16 1.02 16 0 16 C-1 15 -1 15 -1.1328125 12.12890625 C-1.13023437 10.95199219 -1.12765625 9.77507812 -1.125 8.5625 C-1.12757813 7.38816406 -1.13015625 6.21382812 -1.1328125 5.00390625 C-1 2 -1 2 0 0 Z " fill="#221E23" transform="translate(276,181)"/>
<path d="M0 0 C1.0209375 0.37125 1.0209375 0.37125 2.0625 0.75 C-0.92895189 4.10643765 -3.65593975 5.76112646 -7.8125 7.4375 C-8.82054687 7.85386719 -9.82859375 8.27023438 -10.8671875 8.69921875 C-20.32542485 11.9361982 -29.83777924 11.13885909 -39.5 9.375 C-40.20302246 9.24899414 -40.90604492 9.12298828 -41.63037109 8.99316406 C-46.68470355 8.00279645 -46.68470355 8.00279645 -48.9375 5.75 C-46.29146958 5.89278235 -43.64569434 6.0386986 -41 6.1875 C-40.22180908 6.23044189 -39.44361816 6.27338379 -38.6418457 6.31762695 C-34.6064737 6.55157989 -30.63006825 6.87112671 -26.625 7.4375 C-22.74398873 7.76639926 -22.161274 7.44834837 -18.9375 5.75 C-17.5089423 5.41728601 -16.07006199 5.12653832 -14.625 4.875 C-11.37315066 4.21822255 -8.98397396 3.34318692 -6.1875 1.5625 C-2.9375 -0.25 -2.9375 -0.25 0 0 Z " fill="#C4303E" transform="translate(110.9375,149.25)"/>
<path d="M0 0 C0.33 1.32 0.66 2.64 1 4 C-0.65 4 -2.3 4 -4 4 C-3.195625 4.391875 -2.39125 4.78375 -1.5625 5.1875 C1 7 1 7 2 9.5 C2 12 2 12 1.0625 13.8125 C-2.23218112 15.70943762 -5.24238464 15.18480076 -9 15 C-9.66 13.68 -10.32 12.36 -11 11 C-10.34 10.34 -9.68 9.68 -9 9 C-8.34 9 -7.68 9 -7 9 C-8.32 7.68 -9.64 6.36 -11 5 C-8.6102683 -1.65710974 -6.76304013 -1.12717335 0 0 Z " fill="#252226" transform="translate(216,182)"/>
<path d="M0 0 C0 1.32 0 2.64 0 4 C-0.99 4.33 -1.98 4.66 -3 5 C-2.360625 5.2475 -1.72125 5.495 -1.0625 5.75 C1 7 1 7 1.9375 8.875 C2 11 2 11 1.0625 13.25 C-1.29663761 15.25169252 -2.06120231 15.29860333 -5.0625 15.375 C-9 15 -9 15 -11 13 C-11 10 -11 10 -9 8 C-9.33 7.67 -9.66 7.34 -10 7 C-10.25 4.0625 -10.25 4.0625 -10 1 C-6.1496895 -1.56687367 -4.41430237 -0.83288724 0 0 Z M-8 9 C-7.67 9.66 -7.34 10.32 -7 11 C-5.68 10.67 -4.36 10.34 -3 10 C-4.65 9.67 -6.3 9.34 -8 9 Z " fill="#29262B" transform="translate(234,182)"/>
<path d="M0 0 C2.32421875 0.16796875 2.32421875 0.16796875 5 1 C6.58203125 3.36328125 6.58203125 3.36328125 7.8125 6.3125 C8.44091797 7.76076172 8.44091797 7.76076172 9.08203125 9.23828125 C10 12 10 12 10 16 C6.30099992 15.11223998 2.65449539 14.05418136 -1 13 C-1 13.99 -1 14.98 -1 16 C-2.32 16 -3.64 16 -5 16 C-4.49228528 10.03435204 -2.61407872 5.36190101 0 0 Z " fill="#201D21" transform="translate(326,181)"/>
<path d="M0 0 C6.52885205 2.36418483 13.45029548 3.53197245 20.2109375 1.31640625 C22.02258091 0.47284884 22.02258091 0.47284884 24.125 -1 C23.125 2 23.125 2 20.125 4 C12.48998363 4.70491158 5.47288035 4.51791097 -1.6875 1.68359375 C-7.17174077 -0.03023149 -12.86932831 -0.00283585 -18 2.5625 C-20.47292423 5.7773015 -20.80424902 7.96719403 -20.875 12 C-20.27235818 14.84575944 -20.27235818 14.84575944 -18.875 17 C-17.885 17.33 -16.895 17.66 -15.875 18 C-15.875 18.66 -15.875 19.32 -15.875 20 C-14.555 20.33 -13.235 20.66 -11.875 21 C-11.875 21.66 -11.875 22.32 -11.875 23 C-11.215 23.33 -10.555 23.66 -9.875 24 C-13.97957819 23.47616397 -16.09010512 22.34834816 -19.125 19.5625 C-19.81078125 18.94503906 -20.4965625 18.32757813 -21.203125 17.69140625 C-23.60913252 15.25729116 -23.85692723 14.23494606 -24.125 10.75 C-23.78878065 5.70670979 -22.57983283 2.54984803 -18.8125 -0.875 C-12.26440288 -3.38278188 -6.45114264 -2.37584676 0 0 Z " fill="#B93845" transform="translate(71.875,131)"/>
<path d="M0 0 C0.68191406 0.268125 1.36382812 0.53625 2.06640625 0.8125 C8.37546135 3.25582498 15.16804065 2.52773486 21.81640625 2.3125 C22.80640625 2.3125 23.79640625 2.3125 24.81640625 2.3125 C21.94176165 5.14910582 20.59339357 6.30704746 16.4765625 6.3359375 C15.28933594 6.12195313 14.10210937 5.90796875 12.87890625 5.6875 C11.10193359 5.38972656 11.10193359 5.38972656 9.2890625 5.0859375 C5.81640625 4.3125 5.81640625 4.3125 2.8671875 3.234375 C-0.82248542 2.11944183 -4.24830847 2.09150444 -8.05859375 2.1875 C-9.09113281 2.20103516 -9.09113281 2.20103516 -10.14453125 2.21484375 C-11.82437213 2.23817487 -13.50403121 2.27403674 -15.18359375 2.3125 C-15.01988281 3.06917969 -14.85617188 3.82585937 -14.6875 4.60546875 C-14.13759311 7.55961973 -14.11386781 10.31428461 -14.18359375 13.3125 C-15.50359375 13.6425 -16.82359375 13.9725 -18.18359375 14.3125 C-20.18359375 11.3125 -20.18359375 11.3125 -20.18359375 7.9375 C-19.1873287 4.3260392 -18.24008664 2.41514951 -15.1796875 0.19140625 C-10.44617516 -1.8928213 -4.86416394 -1.53147201 0 0 Z " fill="#E71D2E" transform="translate(70.18359375,131.6875)"/>
<path d="M0 0 C2.69117484 1.75239292 3.74422702 2.71056485 4.6875 5.75 C4.0275 6.41 3.3675 7.07 2.6875 7.75 C2.6875 6.43 2.6875 5.11 2.6875 3.75 C1.90375 3.79125 1.12 3.8325 0.3125 3.875 C-2.3125 3.75 -2.3125 3.75 -4.3125 1.75 C-7.12398881 1.55022859 -9.81526969 1.47183228 -12.625 1.5 C-13.38490234 1.49226563 -14.14480469 1.48453125 -14.92773438 1.4765625 C-19.11524699 1.49111511 -22.56082619 1.66083262 -26.3125 3.75 C-26.6846042 5.07303717 -27.01880173 6.40737935 -27.3125 7.75 C-27.96992188 8.02972656 -28.62734375 8.30945312 -29.3046875 8.59765625 C-29.96726562 8.97792969 -30.62984375 9.35820313 -31.3125 9.75 C-31.90779848 11.79771066 -31.90779848 11.79771066 -31.875 14.1875 C-32.21301545 19.9760145 -33.64030703 25.21809118 -35.3125 30.75 C-35.6425 30.75 -35.9725 30.75 -36.3125 30.75 C-36.90366344 22.03033933 -35.440423 12.3702175 -30.0625 5.1875 C-21.80129983 -2.13492742 -10.58271219 -4.02409854 0 0 Z " fill="#B73D47" transform="translate(399.3125,44.25)"/>
<path d="M0 0 C2.9008336 1.4504168 3.36239543 3.68967682 4.39453125 6.62890625 C6.22229161 13.78665167 5.28665778 22.02997361 3 29 C1.42578125 31.2890625 1.42578125 31.2890625 0 33 C-0.66 32.67 -1.32 32.34 -2 32 C-3.46225016 31.90754997 -3.46225016 31.90754997 -6 34 C-8.69921875 34.1953125 -8.69921875 34.1953125 -11.6875 34.125 C-12.68136719 34.10695312 -13.67523438 34.08890625 -14.69921875 34.0703125 C-15.83810547 34.03550781 -15.83810547 34.03550781 -17 34 C-17.33 33.34 -17.66 32.68 -18 32 C-17.34773437 32.04640625 -16.69546875 32.0928125 -16.0234375 32.140625 C-11.61700914 32.32260139 -8.6324732 32.28748782 -4.5625 30.4375 C-0.58080467 26.65003371 0.78231145 23.51205676 1.24609375 18.16015625 C1.37679042 12.06354096 0.65384479 6.84358491 -1 1 C-0.67 0.67 -0.34 0.34 0 0 Z " fill="#BF333E" transform="translate(245,103)"/>
<path d="M0 0 C4.08225112 1.65518174 7.42668086 4.09786578 10.875 6.8125 C8.875 7.8125 6.875 8.8125 4.875 9.8125 C4.875 8.1625 4.875 6.5125 4.875 4.8125 C-6.80537859 0.94969763 -17.49030904 0.42205058 -29.125 4.8125 C-31.52335503 6.0548134 -33.80322841 7.42931693 -36.125 8.8125 C-36.785 8.4825 -37.445 8.1525 -38.125 7.8125 C-33.87523156 3.97399948 -29.33325526 1.99198599 -24.125 -0.1875 C-18.10766066 -3.19616967 -6.34080268 -1.95186448 0 0 Z " fill="#BB2D39" transform="translate(326.125,76.1875)"/>
<path d="M0 0 C5.49726963 5.49726963 5.35611899 14.16428715 5.4375 21.5 C5.42772948 28.66039314 4.6421854 34.67495482 1 41 C0.67 41 0.34 41 0 41 C0.03552979 40.18321777 0.07105957 39.36643555 0.10766602 38.52490234 C0.26570374 34.80850936 0.41419444 31.09179355 0.5625 27.375 C0.61857422 26.08980469 0.67464844 24.80460937 0.73242188 23.48046875 C0.80493164 21.61455078 0.80493164 21.61455078 0.87890625 19.7109375 C0.9260376 18.56931152 0.97316895 17.42768555 1.02172852 16.25146484 C1.000306 13.04579057 0.57037842 10.14783548 0 7 C-0.03762951 4.66697011 -0.04665734 2.33286681 0 0 Z " fill="#C72F38" transform="translate(267,97)"/>
<path d="M0 0 C0 0.66 0 1.32 0 2 C-1.1446875 2.2165625 -1.1446875 2.2165625 -2.3125 2.4375 C-5.08172908 2.9632594 -5.08172908 2.9632594 -8 4 C-9.82170566 7.54220546 -10.45269624 11.07765636 -11 15 C-8.53721199 16.231394 -6.7204945 16.07159196 -4 16 C-4 17.65 -4 19.3 -4 21 C-3.01 21.33 -2.02 21.66 -1 22 C-5.0238929 23.34129763 -7.07628815 22.47139194 -11 21 C-13.76002849 18.10611331 -14.43139003 16.0278679 -14.4375 12.0625 C-14.32823692 8.52966049 -14.07495173 7.12848868 -12.25 4 C-8.11653797 0.32581153 -5.55344926 -0.25242951 0 0 Z " fill="#C42E36" transform="translate(363,75)"/>
<path d="M0 0 C3.63 0 7.26 0 11 0 C11.33 1.32 11.66 2.64 12 4 C11.01 4.33 10.02 4.66 9 5 C8.67 8.3 8.34 11.6 8 15 C6.68 15.33 5.36 15.66 4 16 C3 15 3 15 2.90234375 12.71484375 C2.91394531 11.79832031 2.92554688 10.88179687 2.9375 9.9375 C2.94652344 9.01839844 2.95554687 8.09929687 2.96484375 7.15234375 C2.97644531 6.44207031 2.98804688 5.73179687 3 5 C1.68 4.67 0.36 4.34 -1 4 C-0.67 2.68 -0.34 1.36 0 0 Z " fill="#2E2C2F" transform="translate(305,181)"/>
<path d="M0 0 C2.9375 1.6875 2.9375 1.6875 5 4 C5.3125 7.25 5.3125 7.25 5 10 C4.67 9.34 4.34 8.68 4 8 C3.34 8 2.68 8 2 8 C2 6.68 2 5.36 2 4 C0.56589632 3.75045995 -0.87260072 3.52607358 -2.3125 3.3125 C-3.51326172 3.12107422 -3.51326172 3.12107422 -4.73828125 2.92578125 C-7.08207252 2.74475511 -7.08207252 2.74475511 -8.48046875 4.48046875 C-9.23263672 5.23263672 -9.23263672 5.23263672 -10 6 C-11.65 6 -13.3 6 -15 6 C-15.33 15.9 -15.66 25.8 -16 36 C-16.33 36 -16.66 36 -17 36 C-17.25594323 31.79284906 -17.47500935 27.58455162 -17.6875 23.375 C-17.76033203 22.18519531 -17.83316406 20.99539062 -17.90820312 19.76953125 C-18.43248962 8.72867451 -18.43248962 8.72867451 -15 4 C-9.96951445 -0.65319914 -6.70903005 -1.50374812 0 0 Z " fill="#BF3944" transform="translate(427,76)"/>
<path d="M0 0 C1.3303125 0.7425 1.3303125 0.7425 2.6875 1.5 C0.6875 2.5 0.6875 2.5 -2.3125 1.5625 C-6.9402165 0.1557518 -11.51770278 -0.18259266 -16.3125 0.5 C-19.09448446 2.02520122 -19.09448446 2.02520122 -20.3125 4.5 C-20.55151711 6.62907319 -20.55151711 6.62907319 -19.3125 8.5 C-15.05770366 11.50144548 -10.38369906 13.02958037 -5.5 14.6875 C-4.31760742 15.09645508 -4.31760742 15.09645508 -3.11132812 15.51367188 C-1.18011779 16.18081726 0.75345951 16.84110418 2.6875 17.5 C2.3575 18.16 2.0275 18.82 1.6875 19.5 C1.14222656 19.30664062 0.59695312 19.11328125 0.03515625 18.9140625 C-3.95243798 17.53714962 -7.86094776 16.33062613 -12 15.5 C-15.81435581 14.67978013 -19.01346475 13.67253541 -22.3125 11.5 C-23.80124395 8.97560809 -24.3125 7.35177048 -24.3125 4.4375 C-19.94749962 -4.01968824 -7.64546129 -3.26102328 0 0 Z " fill="#B3414D" transform="translate(97.3125,74.5)"/>
<path d="M0 0 C3.63 0 7.26 0 11 0 C11.33 1.32 11.66 2.64 12 4 C11.01 4.5259375 11.01 4.5259375 10 5.0625 C7.59734703 6.9502444 7.59734703 6.9502444 7.8125 10.5625 C7.874375 11.696875 7.93625 12.83125 8 14 C7.67 14.66 7.34 15.32 7 16 C6.01 16 5.02 16 4 16 C3 8.375 3 8.375 3 5 C1.68 4.67 0.36 4.34 -1 4 C-0.67 2.68 -0.34 1.36 0 0 Z " fill="#312D31" transform="translate(360,181)"/>
<path d="M0 0 C0.33 0.66 0.66 1.32 1 2 C0.70480469 2.71800781 0.40960938 3.43601562 0.10546875 4.17578125 C-2.82052404 11.65102079 -3.42548739 24.27386882 -1 32 C2.50001234 37.68504829 7.08511206 41.10291203 13 44 C12.01 44.495 12.01 44.495 11 45 C4.24759243 42.08003997 -1.24910913 37.15759246 -4.10546875 30.375 C-6.71280262 21.81292547 -6.48905086 12.87040298 -2.96484375 4.55859375 C-1.875 2.625 -1.875 2.625 0 0 Z " fill="#B8353F" transform="translate(54,64)"/>
<path d="M0 0 C0.66 0 1.32 0 2 0 C0.92150751 6.28887179 -4.42837068 10.46329578 -8.8125 14.75 C-17.81333702 21.10353202 -27.21693897 22.59141789 -38 22 C-40.77511969 21.51350798 -43.30070169 20.83055333 -46 20 C-46 19.67 -46 19.34 -46 19 C-44.96101562 19.09539062 -43.92203125 19.19078125 -42.8515625 19.2890625 C-33.37713059 20.07480811 -24.65297025 20.6188152 -16 16 C-16.33 15.34 -16.66 14.68 -17 14 C-14.36 13.67 -11.72 13.34 -9 13 C-8.7525 12.195625 -8.505 11.39125 -8.25 10.5625 C-7 8 -7 8 -4.875 7.1875 C-4.25625 7.125625 -3.6375 7.06375 -3 7 C-3 6.34 -3 5.68 -3 5 C-2.34 5 -1.68 5 -1 5 C-0.67 3.35 -0.34 1.7 0 0 Z " fill="#B73F4E" transform="translate(265,138)"/>
<path d="M0 0 C1.35546875 1.44921875 1.35546875 1.44921875 1.35546875 5.44921875 C2.01546875 5.44921875 2.67546875 5.44921875 3.35546875 5.44921875 C3.35546875 6.10921875 3.35546875 6.76921875 3.35546875 7.44921875 C4.01546875 7.44921875 4.67546875 7.44921875 5.35546875 7.44921875 C6.87255303 20.11892262 6.87255303 20.11892262 4.35546875 25.44921875 C4.02546875 25.44921875 3.69546875 25.44921875 3.35546875 25.44921875 C3.02546875 20.16921875 2.69546875 14.88921875 2.35546875 9.44921875 C1.69546875 9.44921875 1.03546875 9.44921875 0.35546875 9.44921875 C0.12472656 8.90652344 -0.10601562 8.36382812 -0.34375 7.8046875 C-1.82227502 4.56128281 -3.13167987 1.94652918 -5.70703125 -0.55078125 C-10.29387501 -2.11225998 -14.84617358 -1.77767382 -19.64453125 -1.55078125 C-13.71695006 -7.47836244 -5.84287668 -3.94923648 0 0 Z " fill="#D11F2C" transform="translate(325.64453125,100.55078125)"/>
<path d="M0 0 C0 0.99 0 1.98 0 3 C-0.66 3.66 -1.32 4.32 -2 5 C-1.6596875 6.1446875 -1.6596875 6.1446875 -1.3125 7.3125 C-1.209375 8.199375 -1.10625 9.08625 -1 10 C-2.1471175 11.18085625 -3.30619851 12.352502 -4.5234375 13.4609375 C-11.91825262 21.16876066 -11.86333567 30.98623189 -12 41 C-12.33 41 -12.66 41 -13 41 C-13.55139949 26.21943044 -13.26455035 14.60578493 -3 3 C-2.01038578 1.98972098 -1.01344103 0.98637583 0 0 Z " fill="#C1323E" transform="translate(287,85)"/>
<path d="M0 0 C2.84499633 2.86089017 3.45573319 5.53732191 3.5859375 9.40625 C3.47243049 13.33225701 3.47243049 13.33225701 1.1484375 15.65625 C1.18324219 15.06457031 1.21804687 14.47289063 1.25390625 13.86328125 C1.37741866 10.25789533 1.35869612 7.28702585 0.2109375 3.84375 C-8.71407283 -5.62217005 -24.88167595 -4.82152762 -36.8515625 -5.34375 C-36.8515625 -6.00375 -36.8515625 -6.66375 -36.8515625 -7.34375 C-24.68362474 -9.8270026 -10.14779081 -7.36464143 0 0 Z " fill="#AF3742" transform="translate(113.8515625,56.34375)"/>
<path d="M0 0 C-0.33 0.66 -0.66 1.32 -1 2 C-2.91772461 2.37890625 -2.91772461 2.37890625 -5.40234375 2.5625 C-6.29244141 2.63726562 -7.18253906 2.71203125 -8.09960938 2.7890625 C-9.50436523 2.89347656 -9.50436523 2.89347656 -10.9375 3 C-12.78058389 3.13756258 -14.62310044 3.28302261 -16.46484375 3.4375 C-17.285896 3.49808594 -18.10694824 3.55867188 -18.95288086 3.62109375 C-21.21817817 3.84044302 -21.21817817 3.84044302 -23 6 C-25.625 6.125 -25.625 6.125 -28 6 C-28 6.66 -28 7.32 -28 8 C-30.31 8.66 -32.62 9.32 -35 10 C-29.95638983 4.11578813 -23.66522116 0.82763058 -16.125 -0.875 C-10.75243857 -1.28402217 -5.33917027 -0.57841011 0 0 Z " fill="#C32B38" transform="translate(177,75)"/>
<path d="M0 0 C0 0.33 0 0.66 0 1 C-2.31 1.66 -4.62 2.32 -7 3 C-7.33 5.64 -7.66 8.28 -8 11 C-7.25234375 11.17015625 -6.5046875 11.3403125 -5.734375 11.515625 C-4.74953125 11.75796875 -3.7646875 12.0003125 -2.75 12.25 C-1.28820312 12.59804687 -1.28820312 12.59804687 0.203125 12.953125 C3.36302773 14.13588189 4.87304887 15.40747201 7 18 C8.50833848 22.84823082 7.61048084 26.26329164 6 31 C5.01 31 4.02 31 3 31 C3.66 30.01 4.32 29.02 5 28 C5.43605242 23.22873062 5.43605242 23.22873062 3.796875 18.84765625 C1.5416623 16.52870928 0.10771979 16.31388168 -3.0625 15.875 C-7.80789022 15.19210978 -7.80789022 15.19210978 -10 13 C-10.265625 10.72265625 -10.265625 10.72265625 -10.25 8.0625 C-10.25515625 7.18722656 -10.2603125 6.31195313 -10.265625 5.41015625 C-10 3 -10 3 -8 0 C-4.71023192 -1.09658936 -3.28696233 -0.79953138 0 0 Z " fill="#BF404B" transform="translate(397,65)"/>
<path d="M0 0 C0.9075 0.94875 1.815 1.8975 2.75 2.875 C11.95855782 10.61897606 25.84553027 7.91714529 37 7 C29.75493029 11.83004647 21.29448821 11.2732767 13 10 C12.18015625 9.87496094 11.3603125 9.74992188 10.515625 9.62109375 C5.47402143 8.68213738 2.0137863 7.21102904 -2 4 C-2.33 3.34 -2.66 2.68 -3 2 C-2.01 1.34 -1.02 0.68 0 0 Z " fill="#CB202F" transform="translate(211,148)"/>
<path d="M0 0 C2.75 -0.25 2.75 -0.25 6 0 C8.1875 1.875 8.1875 1.875 10 4 C14.86281448 7.24187632 19.08258779 7.21355362 24.75 7.25 C25.53632813 7.270625 26.32265625 7.29125 27.1328125 7.3125 C32.52287357 7.34831436 36.20440944 6.48567259 41 4 C41.33 3.67 41.66 3.34 42 3 C43.66617115 2.95936168 45.33388095 2.957279 47 3 C42.6539339 8.26658704 34.6214139 9.49757857 28.15625 10.39453125 C17.92414261 10.8008061 7.77429433 7.68950907 0 1 C0 0.67 0 0.34 0 0 Z " fill="#B43B4A" transform="translate(288,150)"/>
<path d="M0 0 C0.33 0 0.66 0 1 0 C2.29555436 9.23239712 3.27397964 18.38232746 3.57006836 27.70654297 C3.77217567 32.71857521 4.64966457 37.16492797 6 42 C5.01 42.495 5.01 42.495 4 43 C-2.06268759 30.08383947 -0.12765445 13.97107014 0 0 Z " fill="#B22E39" transform="translate(411,112)"/>
<path d="M0 0 C0.66 0.99 1.32 1.98 2 3 C-2.93327244 8.75548452 -9.57920549 12.40431671 -17 14 C-34.32475736 14.91927284 -34.32475736 14.91927284 -42 11 C-39 10 -39 10 -36.25390625 10.921875 C-32.63861744 12.1197378 -29.73663632 12.26653596 -25.9375 12.25 C-24.15666016 12.25773438 -24.15666016 12.25773438 -22.33984375 12.265625 C-17.69333854 11.89607839 -14.84872425 10.56581617 -11 8 C-10.319375 7.855625 -9.63875 7.71125 -8.9375 7.5625 C-6.60942182 7.11223305 -6.60942182 7.11223305 -5 4 C-3.67479497 3.31731862 -2.34187818 2.6492959 -1 2 C-0.67 1.34 -0.34 0.68 0 0 Z " fill="#B63844" transform="translate(193,145)"/>
<path d="M0 0 C2.64 0 5.28 0 8 0 C8.89604368 6.04829486 9.11269443 11.8894576 9 18 C5.6717269 19.66413655 2.00266027 18.81867406 -1.625 18.5625 C-2.42679687 18.51029297 -3.22859375 18.45808594 -4.0546875 18.40429688 C-6.03679103 18.27451629 -8.01844499 18.13790265 -10 18 C-10 16.68 -10 15.36 -10 14 C-9.67 14.66 -9.34 15.32 -9 16 C-5.04 16 -1.08 16 3 16 C3.33 15.34 3.66 14.68 4 14 C4 14.66 4 15.32 4 16 C4.99 16 5.98 16 7 16 C7 11.38 7 6.76 7 2 C4.69 1.67 2.38 1.34 0 1 C0 0.67 0 0.34 0 0 Z " fill="#478549" transform="translate(455,49)"/>
<path d="M0 0 C1.18613892 0.00785522 1.18613892 0.00785522 2.39624023 0.01586914 C3.67724609 0.02070312 3.67724609 0.02070312 4.98413086 0.02563477 C5.88196289 0.03401367 6.77979492 0.04239258 7.70483398 0.05102539 C8.6065332 0.05553711 9.50823242 0.06004883 10.43725586 0.06469727 C12.67234712 0.07652315 14.90730835 0.09300319 17.14233398 0.11352539 C16.81233398 1.43352539 16.48233398 2.75352539 16.14233398 4.11352539 C16.14233398 3.12352539 16.14233398 2.13352539 16.14233398 1.11352539 C10.86233398 1.77352539 5.58233398 2.43352539 0.14233398 3.11352539 C0.47233398 4.43352539 0.80233398 5.75352539 1.14233398 7.11352539 C1.26438728 9.78893355 1.18700711 12.43313777 1.14233398 15.11352539 C3.06045898 15.05165039 3.06045898 15.05165039 5.01733398 14.98852539 C7.19702148 14.91821289 7.19702148 14.91821289 9.14233398 15.11352539 C9.80233398 15.77352539 10.46233398 16.43352539 11.14233398 17.11352539 C7.18233398 17.11352539 3.22233398 17.11352539 -0.85766602 17.11352539 C-2.33030497 14.16824747 -2.24968118 11.3227982 -2.48266602 8.05102539 C-2.57805664 6.78129883 -2.67344727 5.51157227 -2.77172852 4.20336914 C-2.80008789 3.1837207 -2.82844727 2.16407227 -2.85766602 1.11352539 C-1.85766602 0.11352539 -1.85766602 0.11352539 0 0 Z " fill="#588A5E" transform="translate(446.857666015625,47.886474609375)"/>
<path d="M0 0 C3.06048212 1.79636994 4.57072503 3.27803755 6.375 6.3125 C7.17972553 9.77281979 6.67817715 12.54129652 6 16 C5.67 16 5.34 16 5 16 C4.89042969 15.31292969 4.78085938 14.62585938 4.66796875 13.91796875 C4.50941406 13.01691406 4.35085937 12.11585938 4.1875 11.1875 C4.03667969 10.29417969 3.88585937 9.40085938 3.73046875 8.48046875 C2.92616395 5.74927332 2.3082783 4.64263525 0 3 C-2.79881044 2.4845755 -5.11759395 2.77123762 -8 3 C-8.66 3.66 -9.32 4.32 -10 5 C-15.34132574 6.09006648 -20.57807726 6.11065148 -26 6 C-26.33 5.34 -26.66 4.68 -27 4 C-25.906875 4.0825 -24.81375 4.165 -23.6875 4.25 C-19.88047806 4.27695237 -17.02937185 3.39796598 -13.5 2 C-8.61060799 0.1038369 -5.22162374 -0.72022396 0 0 Z " fill="#B43941" transform="translate(190,131)"/>
<path d="M0 0 C2.01584651 0.61709587 4.01751285 1.28293018 6 2 C6.66 1.67 7.32 1.34 8 1 C8 2.98 8 4.96 8 7 C7.34 7 6.68 7 6 7 C6 7.66 6 8.32 6 9 C3 9 0 9 -3 9 C-3.93423645 5.98968256 -4.04449911 5.13349732 -3 2 C-2.01 1.34 -1.02 0.68 0 0 Z " fill="#3D974A" transform="translate(451,54)"/>
<path d="M0 0 C3.16115776 1.36983503 3.9927092 1.9890638 6 5 C5.78072626 11.24930168 5.78072626 11.24930168 3.375 13.5625 C-0.09753006 14.20217659 -2.7149137 13.13714526 -6 12 C-5.67 11.34 -5.34 10.68 -5 10 C-3.35 10.33 -1.7 10.66 0 11 C0 9.02 0 7.04 0 5 C-3.62885324 4.84850702 -3.62885324 4.84850702 -7 6 C-6.67 5.01 -6.34 4.02 -6 3 C-4.02 2.67 -2.04 2.34 0 2 C0 1.34 0 0.68 0 0 Z " fill="#2C2A2E" transform="translate(133,182)"/>
<path d="M0 0 C3.13870405 0.40817228 5.00268829 1.59944845 7.61328125 3.33984375 C11.23970791 3.84054696 11.23970791 3.84054696 14.61328125 3.33984375 C15.27328125 2.34984375 15.93328125 1.35984375 16.61328125 0.33984375 C17.27328125 0.33984375 17.93328125 0.33984375 18.61328125 0.33984375 C17.24344622 3.50100151 16.62421745 4.33255295 13.61328125 6.33984375 C11.2734375 6.3515625 11.2734375 6.3515625 8.67578125 6.02734375 C7.82113281 5.92808594 6.96648437 5.82882813 6.0859375 5.7265625 C3.61328125 5.33984375 3.61328125 5.33984375 1.6875 4.80078125 C-1.11454519 4.17810454 -3.77042328 4.24618836 -6.63671875 4.27734375 C-7.714375 4.28636719 -8.79203125 4.29539062 -9.90234375 4.3046875 C-11.13210937 4.32208984 -11.13210937 4.32208984 -12.38671875 4.33984375 C-8.48735991 -0.29351205 -5.78477531 -0.19154885 0 0 Z " fill="#BE303C" transform="translate(173.38671875,94.66015625)"/>
<path d="M0 0 C1.51400391 0.01740234 1.51400391 0.01740234 3.05859375 0.03515625 C4.07050781 0.04417969 5.08242187 0.05320313 6.125 0.0625 C7.29869141 0.07990234 7.29869141 0.07990234 8.49609375 0.09765625 C8.49609375 1.41765625 8.49609375 2.73765625 8.49609375 4.09765625 C7.19671875 3.91203125 5.89734375 3.72640625 4.55859375 3.53515625 C2.41033832 3.19949335 2.41033832 3.19949335 0.49609375 3.09765625 C-1.08663226 4.68038226 -0.85126372 6.47799628 -1.06640625 8.66015625 C-1.21078125 10.12453125 -1.35515625 11.58890625 -1.50390625 13.09765625 C1.46609375 13.09765625 4.43609375 13.09765625 7.49609375 13.09765625 C7.49609375 13.75765625 7.49609375 14.41765625 7.49609375 15.09765625 C3.86609375 15.09765625 0.23609375 15.09765625 -3.50390625 15.09765625 C-3.53076037 12.78521833 -3.55023466 10.47269355 -3.56640625 8.16015625 C-3.57800781 6.87238281 -3.58960938 5.58460938 -3.6015625 4.2578125 C-3.47417331 0.13549818 -3.47417331 0.13549818 0 0 Z " fill="#1E1C1F" transform="translate(190.50390625,180.90234375)"/>
<path d="M0 0 C1.02488847 3.07466542 0.95950614 4.05890078 0.4375 7.125 C-0.36426659 13.61297962 0.71522064 18.79178548 4 24.4375 C5.90695447 26.98852863 5.90695447 26.98852863 8 29 C4.43031457 28.33894714 1.79364681 27.35254468 -1 25 C-3.47792135 18.98945232 -3.23997381 12.38596979 -3 6 C-2.34 6 -1.68 6 -1 6 C-1.0309375 4.7934375 -1.0309375 4.7934375 -1.0625 3.5625 C-1 1 -1 1 0 0 Z " fill="#BA2E3B" transform="translate(219,106)"/>
<path d="M0 0 C0.33 0 0.66 0 1 0 C1.11840281 7.94614397 0.94523337 15.81870491 0.5 23.75 C0.13490862 30.50030658 -0.13206341 37.23950764 -0.1875 44 C-0.20039063 44.74733398 -0.21328125 45.49466797 -0.2265625 46.26464844 C-0.23348781 50.00604606 -0.09055515 52.82698349 2 56 C-1 55 -1 55 -2.20043945 52.9453125 C-3.22336276 49.17720662 -3.056887 45.72364035 -2.79296875 41.875 C-2.74811844 41.09165283 -2.70326813 40.30830566 -2.65705872 39.5012207 C-2.51116831 37.00004714 -2.34946369 34.50017872 -2.1875 32 C-2.08947838 30.3503205 -1.9924638 28.70058083 -1.89648438 27.05078125 C-1.3623418 18.02610295 -0.73303698 9.01079389 0 0 Z " fill="#B84852" transform="translate(361,98)"/>
<path d="M0 0 C0.66 0.33 1.32 0.66 2 1 C1.21625 1.763125 0.4325 2.52625 -0.375 3.3125 C-4.41129951 8.18825781 -5.23644835 14.2700273 -4.84375 20.46484375 C-3.69904357 26.90381741 -0.6101954 31.3898046 4 36 C-0.09746288 35.54472635 -2.38181308 35.25041955 -5 32 C-7.89656918 24.56495611 -8.31632192 15.10720598 -5.75 7.5625 C-4.13947758 4.2839365 -2.78905218 2.30818111 0 0 Z " fill="#B53B4B" transform="translate(159,99)"/>
<path d="M0 0 C7.9006797 1.91145477 13.87532453 5.5593849 19 12 C19.27734375 14.7890625 19.27734375 14.7890625 19 17 C18.608125 16.484375 18.21625 15.96875 17.8125 15.4375 C16.9153125 14.7259375 16.9153125 14.7259375 16 14 C13.34533951 14.23043864 13.34533951 14.23043864 11 15 C11.33 13.35 11.66 11.7 12 10 C9.9316316 8.3009831 8.44788522 7.10237376 5.8125 6.5 C5.214375 6.335 4.61625 6.17 4 6 C3.67 5.01 3.34 4.02 3 3 C1.50014391 1.33289654 1.50014391 1.33289654 0 0 Z " fill="#C12734" transform="translate(101,93)"/>
<path d="M0 0 C0.99 0 1.98 0 3 0 C3 0.66 3 1.32 3 2 C2.34 2 1.68 2 1 2 C0.95875 2.845625 0.9175 3.69125 0.875 4.5625 C-0.28286417 9.11125209 -2.39860956 12.00298083 -6 15 C-9.375 15.9375 -9.375 15.9375 -12 16 C-12.33 15.34 -12.66 14.68 -13 14 C-11.68 14 -10.36 14 -9 14 C-9.33 13.01 -9.66 12.02 -10 11 C-9.01 10.67 -8.02 10.34 -7 10 C-6.67 8.02 -6.34 6.04 -6 4 C-3.525 4.99 -3.525 4.99 -1 6 C-1.020625 5.195625 -1.04125 4.39125 -1.0625 3.5625 C-1 1 -1 1 0 0 Z " fill="#D52029" transform="translate(344,137)"/>
<path d="M0 0 C3.63 0 7.26 0 11 0 C11.33 1.32 11.66 2.64 12 4 C9.36 4 6.72 4 4 4 C4 4.66 4 5.32 4 6 C5.98 6 7.96 6 10 6 C10 7.32 10 8.64 10 10 C6.25 11.125 6.25 11.125 4 10 C4 10.66 4 11.32 4 12 C6.31 12 8.62 12 11 12 C11 12.33 11 12.66 11 13 C8.36 13 5.72 13 3 13 C3 11.68 3 10.36 3 9 C4.98 9 6.96 9 9 9 C9 8.34 9 7.68 9 7 C4.85906302 6.79029441 4.85906302 6.79029441 1 8 C0.957279 6.33388095 0.95936168 4.66617115 1 3 C1.33 2.67 1.66 2.34 2 2 C3.66666667 2 5.33333333 2 7 2 C7.33 1.67 7.66 1.34 8 1 C5.36 1 2.72 1 0 1 C0 0.67 0 0.34 0 0 Z " fill="#373539" transform="translate(379,181)"/>
<path d="M0 0 C1.5625 1.1875 1.5625 1.1875 3 3 C3.886875 3.804375 4.77375 4.60875 5.6875 5.4375 C8 8 8 8 8 12 C7.34 12 6.68 12 6 12 C2 7.52941176 2 7.52941176 2 5 C-1.3 4.34 -4.6 3.68 -8 3 C-8.33 3.66 -8.66 4.32 -9 5 C-9.99 4.34 -10.98 3.68 -12 3 C-7.82561234 0.61463562 -4.83415572 -0.6445541 0 0 Z " fill="#D12534" transform="translate(424,44)"/>
<path d="M0 0 C1 3 1 3 0 6 C-0.25609828 9.59973294 -0.23134254 13.20461345 -0.25 16.8125 C-0.270625 17.79798828 -0.29125 18.78347656 -0.3125 19.79882812 C-0.34251179 25.38477267 0.02554276 29.10850126 3 34 C3.6875 37.375 3.6875 37.375 4 40 C1.23376274 38.61688137 1.04597614 37.099163 -0.0625 34.25 C-0.57490234 32.95835937 -0.57490234 32.95835937 -1.09765625 31.640625 C-4.63187542 21.29806155 -3.91214218 10.10636729 0 0 Z " fill="#B4404C" transform="translate(196,100)"/>
<path d="M0 0 C0.66 0.33 1.32 0.66 2 1 C1.525625 1.7425 1.05125 2.485 0.5625 3.25 C-1.78746044 7.38593037 -2.13811679 10.70889826 -2.125 15.4375 C-2.12757813 16.36433594 -2.13015625 17.29117188 -2.1328125 18.24609375 C-2.00344052 20.92865981 -1.59782834 23.38568718 -1 26 C-1.33 25.34 -1.66 24.68 -2 24 C-3.32 24 -4.64 24 -6 24 C-6.38133299 22.0085944 -6.71325582 20.00720923 -7 18 C-6.67 17.67 -6.34 17.34 -6 17 C-5.87625 15.824375 -5.7525 14.64875 -5.625 13.4375 C-5.1095069 8.90443367 -3.83252014 5.17814591 -2 1 C-1.34 0.67 -0.68 0.34 0 0 Z " fill="#D91C28" transform="translate(155,101)"/>
<path d="M0 0 C0.845625 0.144375 1.69125 0.28875 2.5625 0.4375 C9.27975355 1.65324269 9.27975355 1.65324269 16.0625 1.75 C20.18141261 2.10054575 21.91126335 4.37128796 25 7 C27.75401951 7.42130907 27.75401951 7.42130907 30 7 C29.67 8.32 29.34 9.64 29 11 C28.29335205 10.71012207 27.5867041 10.42024414 26.85864258 10.12158203 C24.01634819 9.00641417 21.15960946 8.01548549 18.26171875 7.0546875 C17.19501953 6.70019531 16.12832031 6.34570312 15.02929688 5.98046875 C13.92650391 5.61566406 12.82371094 5.25085938 11.6875 4.875 C10.56537109 4.50246094 9.44324219 4.12992187 8.28710938 3.74609375 C5.52518697 2.82937057 2.76280661 1.91405419 0 1 C0 0.67 0 0.34 0 0 Z " fill="#BE3441" transform="translate(67,109)"/>
<path d="M0 0 C8.81415929 -0.29380531 8.81415929 -0.29380531 12 2 C13.35439668 4.70879335 13.06501451 7.00933268 13 10 C12.01 10 11.02 10 10 10 C10 8.68 10 7.36 10 6 C5.56906802 4.18698242 5.56906802 4.18698242 1 5 C0.67 3.35 0.34 1.7 0 0 Z " fill="#262228" transform="translate(146,181)"/>
<path d="M0 0 C3.63 0 7.26 0 11 0 C11.33 1.32 11.66 2.64 12 4 C11.01 4.33 10.02 4.66 9 5 C9 5.66 9 6.32 9 7 C7.02 7 5.04 7 3 7 C3 6.01 3 5.02 3 4 C2.34 4 1.68 4 1 4 C0.67 2.68 0.34 1.36 0 0 Z " fill="#413A40" transform="translate(276,181)"/>
<path d="M0 0 C6.09186416 -0.49729503 9.18990496 0.44052967 14 4 C14.9375 6.75 14.9375 6.75 15 9 C13.8553125 8.0409375 13.8553125 8.0409375 12.6875 7.0625 C8.47753499 3.83159662 5.20982194 3.64070194 0 4 C-3.69064293 5.71657811 -6.23952781 8.03504838 -9 11 C-8.45925627 7.21479387 -6.92427254 5.40822445 -4 3 C-3.01 3 -2.02 3 -1 3 C-0.67 2.01 -0.34 1.02 0 0 Z " fill="#BF323B" transform="translate(229,95)"/>
<path d="M0 0 C2 1 2 1 4 4 C4.66 3.67 5.32 3.34 6 3 C8.03435531 6.72965139 9 8.66905042 9 13 C5.30099992 12.11223998 1.65449539 11.05418136 -2 10 C-0.68 9.34 0.64 8.68 2 8 C1.01 8 0.02 8 -1 8 C-0.67 5.36 -0.34 2.72 0 0 Z " fill="#302831" transform="translate(327,184)"/>
<path d="M0 0 C0.33 0 0.66 0 1 0 C1.05437005 2.85442753 1.09384974 5.70780076 1.125 8.5625 C1.15013672 9.76229492 1.15013672 9.76229492 1.17578125 10.98632812 C1.2170533 16.04215387 0.87154355 20.27188998 -1 25 C-4.125 26.4375 -4.125 26.4375 -7 27 C-7.33 26.01 -7.66 25.02 -8 24 C-6.35 23.67 -4.7 23.34 -3 23 C-1.55515729 18.38854368 -1.62602535 13.54435773 -1.39453125 8.75585938 C-1.22603401 5.62703993 -0.99631117 2.98893352 0 0 Z " fill="#DF1F31" transform="translate(381,128)"/>
<path d="M0 0 C1.25490234 0.50466797 1.25490234 0.50466797 2.53515625 1.01953125 C4.92697951 2.18238516 6.87143884 3.52224516 8.9375 5.1875 C7.25 5.875 7.25 5.875 4.9375 6.1875 C2.375 4.8125 2.375 4.8125 -0.0625 3.1875 C-3.36585066 2.08638311 -5.96082137 1.98523472 -9.4375 1.9375 C-10.55898437 1.91171875 -11.68046875 1.8859375 -12.8359375 1.859375 C-16.35356057 2.21709938 -18.21015975 3.15774477 -21.0625 5.1875 C-20.08018927 2.64504871 -19.52808721 1.43264218 -17.07421875 0.140625 C-16.30722656 -0.09140625 -15.54023437 -0.3234375 -14.75 -0.5625 C-13.99074219 -0.80484375 -13.23148437 -1.0471875 -12.44921875 -1.296875 C-7.75738091 -2.31049627 -4.41630655 -1.82249436 0 0 Z " fill="#C81F2A" transform="translate(96.0625,71.8125)"/>
<path d="M0 0 C2.50357861 0.8345262 4.66785852 1.79371992 7 3 C6.67 4.98 6.34 6.96 6 9 C1.04303419 7.76075855 -1.11658466 6.21422242 -4 2 C-2.68 1.67 -1.36 1.34 0 1 C0 0.67 0 0.34 0 0 Z M8 0 C9.98 0.495 9.98 0.495 12 1 C10.35 1.33 8.7 1.66 7 2 C7.33 1.34 7.66 0.68 8 0 Z " fill="#E21D21" transform="translate(145,146)"/>
<path d="M0 0 C3 1 3 1 4 3 C4.039992 4.99960012 4.04346799 7.00047242 4 9 C3.01 9 2.02 9 1 9 C0.67 10.65 0.34 12.3 0 14 C-0.99 13.67 -1.98 13.34 -3 13 C-2.67 9.7 -2.34 6.4 -2 3 C-1.34 3 -0.68 3 0 3 C0 2.01 0 1.02 0 0 Z " fill="#EC1A2E" transform="translate(98,119)"/>
<path d="M0 0 C0 1.66666667 0 3.33333333 0 5 C-2.28527191 7.28527191 -3.55066031 7.97121222 -6.8046875 8.1796875 C-12.50714978 7.6137943 -17.12658827 7.1135686 -22 4 C-22 3.34 -22 2.68 -22 2 C-20.8553125 2.495 -20.8553125 2.495 -19.6875 3 C-14.74153172 4.34127953 -10.09124446 4.66542101 -5 4 C-1.85260231 2.2256306 -1.85260231 2.2256306 0 0 Z " fill="#CC202A" transform="translate(244,132)"/>
<path d="M0 0 C2 2 2 2 3 5 C3.66 5.33 4.32 5.66 5 6 C5.33333333 7.66666667 5.66666667 9.33333333 6 11 C6.66 11.33 7.32 11.66 8 12 C8.309375 12.94875 8.61875 13.8975 8.9375 14.875 C9.94794567 17.84689902 10.62997461 19.06088831 13 21 C12.67 21.66 12.34 22.32 12 23 C5.72324722 16.68706997 0 9.22408145 0 0 Z " fill="#BE3443" transform="translate(275,127)"/>
<path d="M0 0 C0.33 0.99 0.66 1.98 1 3 C-0.26220093 5.04563599 -1.60287726 7.04402816 -3 9 C-3.69429379 10.3191582 -4.37530495 11.64649406 -5 13 C-5.99 13 -6.98 13 -8 13 C-8.66 15.64 -9.32 18.28 -10 21 C-11.56612203 14.73551186 -8.19309773 10.36821247 -5 5 C-3.42505962 3.03132452 -1.95196478 1.6075004 0 0 Z " fill="#BD3B43" transform="translate(141,85)"/>
<path d="M0 0 C0.66 0 1.32 0 2 0 C2 0.66 2 1.32 2 2 C2.66 2 3.32 2 4 2 C3.68289063 3.1034375 3.36578125 4.206875 3.0390625 5.34375 C1.78087972 10.37648112 1.55525692 15.33263483 1.375 20.5 C1.33632813 21.4178125 1.29765625 22.335625 1.2578125 23.28125 C1.16450436 25.52064528 1.07871815 27.76005254 1 30 C0.67 30 0.34 30 0 30 C-0.85803148 19.83562705 -1.03351814 10.17617858 0 0 Z " fill="#D32431" transform="translate(362,98)"/>
<path d="M0 0 C7.75 0.75 7.75 0.75 10 3 C10 3.99 10 4.98 10 6 C7.41558539 6.92300522 6.41505971 7.19532222 3.875 6 C3.25625 5.67 2.6375 5.34 2 5 C-0.51083114 6.25541557 -0.87125446 7.50063488 -2 10 C-2 8.35 -2 6.7 -2 5 C-1.01 4.67 -0.02 4.34 1 4 C0.67 2.68 0.34 1.36 0 0 Z " fill="#312F33" transform="translate(258,181)"/>
<path d="M0 0 C0.33 0.99 0.66 1.98 1 3 C0.67 3.33 0.34 3.66 0 4 C-1.66666667 4 -3.33333333 4 -5 4 C-5.99 4.33 -6.98 4.66 -8 5 C-8.33 4.01 -8.66 3.02 -9 2 C-9.33 3.65 -9.66 5.3 -10 7 C-10.33 7 -10.66 7 -11 7 C-11.1875 4.125 -11.1875 4.125 -11 1 C-6.8204355 -1.78637633 -4.85331323 -0.79562512 0 0 Z " fill="#393639" transform="translate(353,182)"/>
<path d="M0 0 C6.875 0.875 6.875 0.875 8 2 C11.66344611 2.13568319 14.50615721 2.16461426 18 1 C20.00875442 1.27571139 22.01178687 1.60235737 24 2 C21.12594877 3.63163336 19.07585773 4.24944925 15.77734375 4.23046875 C14.59881836 4.22756836 14.59881836 4.22756836 13.39648438 4.22460938 C12.17928711 4.20624023 12.17928711 4.20624023 10.9375 4.1875 C9.71450195 4.1865332 9.71450195 4.1865332 8.46679688 4.18554688 C4.98599679 4.15980554 2.33437664 4.11145888 -1 3 C-0.67 2.01 -0.34 1.02 0 0 Z " fill="#CF1D2B" transform="translate(302,154)"/>
<path d="M0 0 C0.33 0 0.66 0 1 0 C1 2.31 1 4.62 1 7 C5.75853038 9.46738612 10.1882347 11.16444141 15.5 12 C19.26530402 12.59229501 22.5001624 13.47833148 26 15 C25.67 15.66 25.34 16.32 25 17 C24.45472656 16.80664062 23.90945312 16.61328125 23.34765625 16.4140625 C19.36006202 15.03714962 15.45155224 13.83062613 11.3125 13 C7.49814419 12.17978013 4.29903525 11.17253541 1 9 C-0.61751685 6.25725404 -1.13542412 4.83511538 -0.625 1.6875 C-0.41875 1.130625 -0.2125 0.57375 0 0 Z " fill="#C12935" transform="translate(74,77)"/>
<path d="M0 0 C6.22745474 0.59309093 9.94233262 2.99648176 14.375 7.3125 C16.46424523 10.76779019 16.44952649 13.0291827 16 17 C15.34 17.66 14.68 18.32 14 19 C13.67 15.37 13.34 11.74 13 8 C11.68 7.67 10.36 7.34 9 7 C9 6.01 9 5.02 9 4 C7.88625 3.71125 6.7725 3.4225 5.625 3.125 C2 2 2 2 0 0 Z " fill="#AE3741" transform="translate(178,76)"/>
<path d="M0 0 C0.99 0.66 1.98 1.32 3 2 C3.1875 5.625 3.1875 5.625 3 9 C2.01 9.33 1.02 9.66 0 10 C0 9.34 0 8.68 0 8 C-0.33 8 -0.66 8 -1 8 C-2.66666667 8 -4.33333333 8 -6 8 C-5.01 7.34 -4.02 6.68 -3 6 C-3.66 5.67 -4.32 5.34 -5 5 C-4 2 -4 2 -1.9375 0.8125 C-1.298125 0.544375 -0.65875 0.27625 0 0 Z " fill="#38353A" transform="translate(113,186)"/>
<path d="M0 0 C0 0.99 0 1.98 0 3 C5.28 3 10.56 3 16 3 C14 5 14 5 10.953125 5.265625 C9.73109375 5.26046875 8.5090625 5.2553125 7.25 5.25 C6.03828125 5.25515625 4.8265625 5.2603125 3.578125 5.265625 C0.05464721 5.00405678 -2.71789116 4.26854514 -6 3 C-3.375 0 -3.375 0 0 0 Z " fill="#D21B2B" transform="translate(160,153)"/>
<path d="M0 0 C1.60517097 0.08733576 3.20921662 0.19552224 4.8125 0.3125 C6.15248047 0.39951172 6.15248047 0.39951172 7.51953125 0.48828125 C10.35237034 1.07269372 11.27952069 1.71515964 13 4 C14.4385133 8.86881425 13.61297605 12.25595279 12 17 C11.01 17 10.02 17 9 17 C9.66 16.01 10.32 15.02 11 14 C11.31777125 10.50451624 11.40343451 7.93294231 10 4.6875 C6.95224968 2.11596067 3.89064163 1.76537212 0 1 C0 0.67 0 0.34 0 0 Z " fill="#BC303B" transform="translate(391,79)"/>
<path d="M0 0 C-1.051875 0.391875 -2.10375 0.78375 -3.1875 1.1875 C-6.94200494 2.78146488 -9.18718532 5.03914244 -12 8 C-16.44827586 11 -16.44827586 11 -19 11 C-19 11.66 -19 12.32 -19 13 C-19.66 12.67 -20.32 12.34 -21 12 C-20.67 11.34 -20.34 10.68 -20 10 C-19.34 10 -18.68 10 -18 10 C-18 9.34 -18 8.68 -18 8 C-13.42966467 3.73831069 -6.39523911 -2.13174637 0 0 Z " fill="#BE3540" transform="translate(76,51)"/>
<path d="M0 0 C1.175625 0.33 2.35125 0.66 3.5625 1 C10.30642011 2.52733119 17.13047614 2.1482631 24 2 C24.99 2 25.98 2 27 2 C24.16005879 4.78645832 22.78410406 5.98594796 18.73046875 6.05859375 C12.17140683 4.90876922 6.10865429 3.68780789 0 1 C0 0.67 0 0.34 0 0 Z " fill="#CA1E2D" transform="translate(68,132)"/>
<path d="M0 0 C0.33 0 0.66 0 1 0 C1.04976954 4.14427102 1.08589288 8.28837953 1.10986328 12.43286133 C1.11986557 13.84011876 1.13347178 15.2473557 1.15087891 16.65454102 C1.17538366 18.68771448 1.18654083 20.72061106 1.1953125 22.75390625 C1.20578613 23.97408447 1.21625977 25.1942627 1.22705078 26.45141602 C0.98048118 30.30506028 0.18578175 33.34213 -1 37 C-1.33 37 -1.66 37 -2 37 C-1.85952765 32.70814059 -1.71163638 28.41656639 -1.5625 24.125 C-1.52318359 22.92101562 -1.48386719 21.71703125 -1.44335938 20.4765625 C-1.20096477 13.61493058 -0.80252553 6.81999001 0 0 Z " fill="#C11A28" transform="translate(384,101)"/>
<path d="M0 0 C4.63105622 3.55047644 5.21451985 7.50990718 6 13 C6.41060243 16.66238486 6.73890521 20.32406023 7 24 C5.17193375 20.44008152 4.22029363 17.32176178 3.5625 13.375 C3.17899671 10.82892516 3.17899671 10.82892516 1 9 C0.95745644 7.00045254 0.95919217 4.99958364 1 3 C0.67 2.01 0.34 1.02 0 0 Z " fill="#DE2232" transform="translate(344,92)"/>
<path d="M0 0 C0.33 0.99 0.66 1.98 1 3 C-0.625 5.0625 -0.625 5.0625 -3 7 C-6.25 6.75 -6.25 6.75 -9 6 C-9.33 4.35 -9.66 2.7 -10 1 C-6.7 1.33 -3.4 1.66 0 2 C0 1.34 0 0.68 0 0 Z " fill="#1A181B" transform="translate(352,191)"/>
<path d="M0 0 C0.33 0.99 0.66 1.98 1 3 C0.34 3 -0.32 3 -1 3 C-1.33 4.65 -1.66 6.3 -2 8 C-2.66 8 -3.32 8 -4 8 C-4 8.66 -4 9.32 -4 10 C-5.32 10.33 -6.64 10.66 -8 11 C-8 9.02 -8 7.04 -8 5 C-6.68 5 -5.36 5 -4 5 C-4 4.01 -4 3.02 -4 2 C-2.68 2 -1.36 2 0 2 C0 1.34 0 0.68 0 0 Z " fill="#DA2227" transform="translate(266,135)"/>
<path d="M0 0 C2.32845886 3.63821698 2.23553948 6.76028942 2 11 C1.67 11.66 1.34 12.32 1 13 C0.01 13 -0.98 13 -2 13 C-3.22764228 5.63414634 -3.22764228 5.63414634 -2.125 2.5625 C-1 1 -1 1 0 0 Z " fill="#141214" transform="translate(366,184)"/>
<path d="M0 0 C0.33 0 0.66 0 1 0 C1 5.61 1 11.22 1 17 C-2.14220379 13.85779621 -2.6092381 13.20069047 -3 9 C-2.5625 5.6875 -2.5625 5.6875 -2 3 C-1.34 3 -0.68 3 0 3 C0 2.01 0 1.02 0 0 Z " fill="#D02333" transform="translate(297,109)"/>
<path d="M0 0 C0.66 0.33 1.32 0.66 2 1 C0.8125 3 0.8125 3 -1 5 C-3.6875 5.25 -3.6875 5.25 -6 5 C-6 5.66 -6 6.32 -6 7 C-8.31 7.66 -10.62 8.32 -13 9 C-9.28570342 4.82141635 -5.35814198 1.82153171 0 0 Z " fill="#BE343D" transform="translate(155,76)"/>
<path d="M0 0 C2.89684158 -0.10829314 5.78961019 -0.18743954 8.6875 -0.25 C9.50412109 -0.28351562 10.32074219 -0.31703125 11.16210938 -0.3515625 C15.40735834 -0.42031147 17.4321814 -0.37134905 21.08203125 2.015625 C21.71496094 2.67046875 22.34789062 3.3253125 23 4 C22.34 5.32 21.68 6.64 21 8 C21 6.68 21 5.36 21 4 C20.21625 4.04125 19.4325 4.0825 18.625 4.125 C16 4 16 4 14 2 C11.63490639 1.69940057 9.25558119 1.50484988 6.875 1.375 C4.95300781 1.26285156 4.95300781 1.26285156 2.9921875 1.1484375 C1.51105469 1.07496094 1.51105469 1.07496094 0 1 C0 0.67 0 0.34 0 0 Z " fill="#BF2939" transform="translate(381,44)"/>
<path d="M0 0 C0.67095703 0.61488281 0.67095703 0.61488281 1.35546875 1.2421875 C4.73744485 4.25640074 7.579668 6.66050545 12 8 C12 8.33 12 8.66 12 9 C6.7258624 9.6592672 3.90460441 8.06928516 -0.36328125 5.2890625 C-2 4 -2 4 -3 2 C-2.01 1.34 -1.02 0.68 0 0 Z " fill="#BD2C38" transform="translate(211,148)"/>
<path d="M0 0 C0.33 0 0.66 0 1 0 C1.309375 1.11375 1.61875 2.2275 1.9375 3.375 C2.82326483 6.7945155 2.82326483 6.7945155 4 9 C6.01669827 10.13350534 6.01669827 10.13350534 8 11 C8 11.66 8 12.32 8 13 C9.32 13.33 10.64 13.66 12 14 C12 14.66 12 15.32 12 16 C12.66 16.33 13.32 16.66 14 17 C9.89542181 16.47616397 7.78489488 15.34834816 4.75 12.5625 C4.06421875 11.94503906 3.3784375 11.32757813 2.671875 10.69140625 C0.08244561 8.07172652 0.00328288 7.19040704 -0.0625 3.375 C-0.041875 2.26125 -0.02125 1.1475 0 0 Z " fill="#AF3742" transform="translate(48,138)"/>
<path d="M0 0 C3.465 1.485 3.465 1.485 7 3 C6 6 6 6 3.9375 7.1875 C3.298125 7.455625 2.65875 7.72375 2 8 C1.01 7.34 0.02 6.68 -1 6 C-1.25 3.4375 -1.25 3.4375 -1 1 C-0.67 0.67 -0.34 0.34 0 0 Z " fill="#3AAE4C" transform="translate(451,54)"/>
<path d="M0 0 C2.53280106 2.17097233 4.14191937 4.21287906 6 7 C5.67 7.99 5.34 8.98 5 10 C4.4225 9.05125 3.845 8.1025 3.25 7.125 C1.03802136 4.05280744 0.38812947 3.24072347 -3 2 C-5.82085728 1.75926806 -5.82085728 1.75926806 -8.75 1.875 C-9.73484375 1.89304687 -10.7196875 1.91109375 -11.734375 1.9296875 C-12.48203125 1.95289062 -13.2296875 1.97609375 -14 2 C-10.36959396 -1.63040604 -4.70773396 -1.65406869 0 0 Z " fill="#BF383F" transform="translate(320,97)"/>
<path d="M0 0 C0.33 0 0.66 0 1 0 C1 2.97 1 5.94 1 9 C0.34 9 -0.32 9 -1 9 C-1 9.66 -1 10.32 -1 11 C-2.32 11 -3.64 11 -5 11 C-5 9.35 -5 7.7 -5 6 C-3.35 5.34 -1.7 4.68 0 4 C0 2.68 0 1.36 0 0 Z " fill="#DA2129" transform="translate(191,86)"/>
<path d="M0 0 C1.65 0.33 3.3 0.66 5 1 C5 1.99 5 2.98 5 4 C3.68 4.33 2.36 4.66 1 5 C2.65 5.33 4.3 5.66 6 6 C6 6.33 6 6.66 6 7 C3.36 7 0.72 7 -2 7 C-2.66 5.68 -3.32 4.36 -4 3 C-3.34 2.34 -2.68 1.68 -2 1 C-1.34 1 -0.68 1 0 1 C0 0.67 0 0.34 0 0 Z " fill="#3B3A3C" transform="translate(209,190)"/>
<path d="M0 0 C9.41002278 -0.3690205 9.41002278 -0.3690205 14 2 C14 2.99 14 3.98 14 5 C9.16371695 4.00956295 4.52381127 3.04301154 0 1 C0 0.67 0 0.34 0 0 Z " fill="#D31E2D" transform="translate(66,107)"/>
<path d="M0 0 C0.99 0.33 1.98 0.66 3 1 C3 1.66 3 2.32 3 3 C3.99 3.33 4.98 3.66 6 4 C5.360625 4.78375 4.72125 5.5675 4.0625 6.375 C2.01857687 8.79539281 2.01857687 8.79539281 1 11 C0.34 11 -0.32 11 -1 11 C-1.33 11.66 -1.66 12.32 -2 13 C-2.37313089 8.64680627 -1.21679647 6.6625333 1 3 C0.67 2.01 0.34 1.02 0 0 Z " fill="#C1232F" transform="translate(300,96)"/>
<path d="M0 0 C0.99 0 1.98 0 3 0 C3.66 0.66 4.32 1.32 5 2 C5.66 1.34 6.32 0.68 7 0 C7.94693195 3.7016431 8.30443767 5.39112465 6.5625 8.875 C6.046875 9.57625 5.53125 10.2775 5 11 C4.34 10.67 3.68 10.34 3 10 C2.60689586 7.67711188 2.49250305 5.38154824 2.34375 3.03125 C2.17359375 2.02578125 2.17359375 2.02578125 2 1 C1.34 0.67 0.68 0.34 0 0 Z " fill="#353235" transform="translate(173,185)"/>
<path d="M0 0 C0.33 0.99 0.66 1.98 1 3 C-2.04535646 5.6646869 -3.96071111 6.41194472 -8 6.375 C-8.845625 6.38273438 -9.69125 6.39046875 -10.5625 6.3984375 C-13.43365432 5.9291142 -14.83441027 4.89489101 -17 3 C-16.01 2.67 -15.02 2.34 -14 2 C-13.01 2.66 -12.02 3.32 -11 4 C-8.4745777 4.0255089 -8.4745777 4.0255089 -5.8125 3.625 C-4.91144531 3.51414063 -4.01039063 3.40328125 -3.08203125 3.2890625 C-2.39496094 3.19367188 -1.70789063 3.09828125 -1 3 C-0.67 2.01 -0.34 1.02 0 0 Z " fill="#AD2B37" transform="translate(433,152)"/>
<path d="M0 0 C0.33 0 0.66 0 1 0 C2.51708428 11.52164009 2.51708428 11.52164009 0 17 C-0.66 16.67 -1.32 16.34 -2 16 C-1.34 10.72 -0.68 5.44 0 0 Z M2 0 C2.66 0 3.32 0 4 0 C3.67 1.65 3.34 3.3 3 5 C2.67 5 2.34 5 2 5 C2 3.35 2 1.7 2 0 Z " fill="#E4212C" transform="translate(347,120)"/>
<path d="M0 0 C4.42017839 4.42017839 4.125 12.71479275 4.125 18.6875 C4.09369567 20.12526298 4.0561088 21.56299124 4 23 C3.67 23 3.34 23 3 23 C-0.15045969 7.52298444 -0.15045969 7.52298444 0 0 Z " fill="#C82332" transform="translate(267,97)"/>
<path d="M0 0 C0.33 0 0.66 0 1 0 C1 1.65 1 3.3 1 5 C0.34 5 -0.32 5 -1 5 C-1 5.99 -1 6.98 -1 8 C-3.64 8 -6.28 8 -9 8 C-9 6.68 -9 5.36 -9 4 C-6.03 4 -3.06 4 0 4 C0 2.68 0 1.36 0 0 Z " fill="#1B191D" transform="translate(114,189)"/>
<path d="M0 0 C2.31 0.33 4.62 0.66 7 1 C7 2.32 7 3.64 7 5 C5.02 5.99 3.04 6.98 1 8 C0.2341972 5.22396483 0 2.89326812 0 0 Z " fill="#37343A" transform="translate(227,181)"/>
<path d="M0 0 C0.33 0 0.66 0 1 0 C1.15855469 0.65226562 1.31710938 1.30453125 1.48046875 1.9765625 C3.05148985 7.86138187 4.74423023 11.62920943 9 16 C5.47331553 15.34691028 2.84147848 14.20588461 0 12 C-0.48828125 9.08203125 -0.48828125 9.08203125 -0.3125 5.8125 C-0.26738281 4.72582031 -0.22226563 3.63914062 -0.17578125 2.51953125 C-0.11777344 1.68808594 -0.05976563 0.85664062 0 0 Z " fill="#AF3441" transform="translate(218,119)"/>
<path d="M0 0 C0.99 1.32 1.98 2.64 3 4 C2.525625 5.051875 2.05125 6.10375 1.5625 7.1875 C0.30676259 10.10175851 -0.52234381 12.84746914 -1 16 C-1.33 16 -1.66 16 -2 16 C-2 11.05 -2 6.1 -2 1 C-1.34 0.67 -0.68 0.34 0 0 Z " fill="#DF1F2F" transform="translate(219,96)"/>
<path d="M0 0 C0.33 0.99 0.66 1.98 1 3 C3.31 3 5.62 3 8 3 C8 3.99 8 4.98 8 6 C1.9453125 6.1953125 1.9453125 6.1953125 0 6 C-0.66 5.34 -1.32 4.68 -2 4 C-2 3.01 -2 2.02 -2 1 C-1.34 0.67 -0.68 0.34 0 0 Z " fill="#1E1D21" transform="translate(225,191)"/>
<path d="M0 0 C0.33 0 0.66 0 1 0 C1.42670076 3.48472283 1.64789556 6.0186845 -0.3359375 9.0234375 C-1.83609212 10.74896747 -3.36656784 12.40059768 -5 14 C-5 10.48283697 -4.17554415 9.62878252 -2 7 C-2.66 7 -3.32 7 -4 7 C-2.79618552 4.50638429 -1.54571278 2.31856917 0 0 Z " fill="#C9323E" transform="translate(119,136)"/>
<path d="M0 0 C1.18613892 0.00785522 1.18613892 0.00785522 2.39624023 0.01586914 C3.67724609 0.02070312 3.67724609 0.02070312 4.98413086 0.02563477 C5.88196289 0.03401367 6.77979492 0.04239258 7.70483398 0.05102539 C8.6065332 0.05553711 9.50823242 0.06004883 10.43725586 0.06469727 C12.67234712 0.07652315 14.90730835 0.09300319 17.14233398 0.11352539 C16.81233398 1.43352539 16.48233398 2.75352539 16.14233398 4.11352539 C16.14233398 3.12352539 16.14233398 2.13352539 16.14233398 1.11352539 C14.33635742 1.36489258 14.33635742 1.36489258 12.49389648 1.62133789 C10.91845138 1.82764618 9.34292622 2.03334377 7.76733398 2.23852539 C6.57624023 2.40674805 6.57624023 2.40674805 5.36108398 2.57836914 C3.29711513 2.84073806 1.21894047 2.98503277 -0.85766602 3.11352539 C-1.51766602 2.45352539 -2.17766602 1.79352539 -2.85766602 1.11352539 C-1.85766602 0.11352539 -1.85766602 0.11352539 0 0 Z " fill="#529556" transform="translate(446.857666015625,47.886474609375)"/>
<path d="M0 0 C1.45823212 -0.0270043 2.91660675 -0.04639787 4.375 -0.0625 C5.18710938 -0.07410156 5.99921875 -0.08570313 6.8359375 -0.09765625 C9 0 9 0 11 1 C10.67 3.64 10.34 6.28 10 9 C8 5.25 8 5.25 8 3 C6.68 3 5.36 3 4 3 C4 2.34 4 1.68 4 1 C2.68 0.67 1.36 0.34 0 0 Z " fill="#1D181D" transform="translate(168,182)"/>
<path d="M0 0 C0.33 0 0.66 0 1 0 C1 3.96 1 7.92 1 12 C1.33 10.35 1.66 8.7 2 7 C2.66 7 3.32 7 4 7 C4.33 8.98 4.66 10.96 5 13 C4.01 13.66 3.02 14.32 2 15 C0 13 0 13 -0.1953125 9.9609375 C-0.17210937 8.77757812 -0.14890625 7.59421875 -0.125 6.375 C-0.10695313 5.18648437 -0.08890625 3.99796875 -0.0703125 2.7734375 C-0.04710937 1.85820312 -0.02390625 0.94296875 0 0 Z " fill="#2C292D" transform="translate(275,183)"/>
<path d="M0 0 C3.125 -0.1875 3.125 -0.1875 6 0 C5.01 0.495 5.01 0.495 4 1 C4 1.66 4 2.32 4 3 C3.01 3.495 3.01 3.495 2 4 C1.34444881 6.52733235 1.34444881 6.52733235 1 9 C0.01 9 -0.98 9 -2 9 C-2.25 3.375 -2.25 3.375 0 0 Z " fill="#1A191A" transform="translate(255,182)"/>
<path d="M0 0 C3.5625 0.1875 3.5625 0.1875 5.5625 2.1875 C5.5625 3.1775 5.5625 4.1675 5.5625 5.1875 C3.2525 4.8575 0.9425 4.5275 -1.4375 4.1875 C-1.1075 3.5275 -0.7775 2.8675 -0.4375 2.1875 C-1.7575 1.8575 -3.0775 1.5275 -4.4375 1.1875 C-3.4375 0.1875 -3.4375 0.1875 0 0 Z " fill="#2B2A2D" transform="translate(109.4375,180.8125)"/>
<path d="M0 0 C2.375 0.5625 2.375 0.5625 5 2 C6.33261967 5.49019436 7 8.26638158 7 12 C5.82455195 10.56967163 4.65989738 9.13046758 3.5 7.6875 C2.8503125 6.88699219 2.200625 6.08648437 1.53125 5.26171875 C0 3 0 3 0 0 Z " fill="#BC3240" transform="translate(133,136)"/>
<path d="M0 0 C-0.93103324 2.32758311 -1.65382128 3.74357132 -3.6875 5.25 C-6.83545718 6.27095909 -9.71543368 6.12632947 -13 6 C-10 4 -10 4 -7 4 C-7 3.34 -7 2.68 -7 2 C-4.35261084 0.5393715 -3.10551666 0 0 0 Z " fill="#AF343F" transform="translate(115,72)"/>
<path d="M0 0 C0.66 0.99 1.32 1.98 2 3 C1.236875 3.061875 0.47375 3.12375 -0.3125 3.1875 C-3.85604096 4.25880308 -4.2652743 5.84595327 -6 9 C-6.99 9.33 -7.98 9.66 -9 10 C-8.34 8.02 -7.68 6.04 -7 4 C-6.34 4 -5.68 4 -5 4 C-5 3.34 -5 2.68 -5 2 C-4.01 1.67 -3.02 1.34 -2 1 C-1.34 1.33 -0.68 1.66 0 2 C0 1.34 0 0.68 0 0 Z " fill="#D31C24" transform="translate(62,60)"/>
<path d="M0 0 C7.75 0.875 7.75 0.875 10 2 C10 2.99 10 3.98 10 5 C4.5388601 4.64766839 4.5388601 4.64766839 2 4 C0.5 1.9375 0.5 1.9375 0 0 Z " fill="#201E23" transform="translate(205,186)"/>
<path d="M0 0 C0 3.63 0 7.26 0 11 C-0.99 11 -1.98 11 -3 11 C-3 7.7 -3 4.4 -3 1 C-1 0 -1 0 0 0 Z " fill="#191819" transform="translate(312,186)"/>
<path d="M0 0 C0.99 0.33 1.98 0.66 3 1 C3.33 5.29 3.66 9.58 4 14 C3.01 14.495 3.01 14.495 2 15 C1.67 13.35 1.34 11.7 1 10 C0.67 10 0.34 10 0 10 C0 6.7 0 3.4 0 0 Z " fill="#D31B27" transform="translate(411,91)"/>
<path d="M0 0 C5.40489519 1.52012677 8.98492628 5.27385218 13 9 C12.67 9.66 12.34 10.32 12 11 C11.46375 10.360625 10.9275 9.72125 10.375 9.0625 C7.55632807 6.61470596 5.66139268 6.33285388 2 6 C2.33 5.01 2.66 4.02 3 3 C2.01 2.01 1.02 1.02 0 0 Z " fill="#B7373F" transform="translate(249,79)"/>
<path d="M0 0 C0.66 0.33 1.32 0.66 2 1 C2 2.65 2 4.3 2 6 C1.01 6 0.02 6 -1 6 C-0.34 5.67 0.32 5.34 1 5 C0.01 5 -0.98 5 -2 5 C-3.33981486 4.6937566 -4.67511887 4.36548445 -6 4 C-5.34 3.67 -4.68 3.34 -4 3 C-4.99 2.34 -5.98 1.68 -7 1 C-4 0 -4 0 0 0 Z " fill="#353436" transform="translate(352,189)"/>
<path d="M0 0 C1.125 5.625 1.125 5.625 0 9 C0.33 9.66 0.66 10.32 1 11 C0.01 10.67 -0.98 10.34 -2 10 C-2.73046875 7.93359375 -2.73046875 7.93359375 -3.1875 5.4375 C-3.34605469 4.61121094 -3.50460937 3.78492188 -3.66796875 2.93359375 C-3.83232422 1.97646484 -3.83232422 1.97646484 -4 1 C-2 0 -2 0 0 0 Z " fill="#E7181B" transform="translate(415,55)"/>
<path d="M0 0 C0.33 0 0.66 0 1 0 C1 4.62 1 9.24 1 14 C0.01 13.67 -0.98 13.34 -2 13 C-1.34 13 -0.68 13 0 13 C-0.33 12.34 -0.66 11.68 -1 11 C-1.99 11.33 -2.98 11.66 -4 12 C-4 11.34 -4 10.68 -4 10 C-3.34 10 -2.68 10 -2 10 C-2 8.35 -2 6.7 -2 5 C-1.67 5 -1.34 5 -1 5 C-0.67 3.35 -0.34 1.7 0 0 Z " fill="#5C9C5E" transform="translate(461,51)"/>
<path d="M0 0 C0.33 0.99 0.66 1.98 1 3 C-3.30769231 6.07692308 -3.30769231 6.07692308 -6.8125 5.6875 C-7.534375 5.460625 -8.25625 5.23375 -9 5 C-8.67 4.01 -8.34 3.02 -8 2 C-6.865625 1.855625 -5.73125 1.71125 -4.5625 1.5625 C-1.19222799 1.38828522 -1.19222799 1.38828522 0 0 Z " fill="#232023" transform="translate(176,192)"/>
<path d="M0 0 C0.33 0.99 0.66 1.98 1 3 C1.99 3 2.98 3 4 3 C4 3.66 4 4.32 4 5 C5.32 5.33 6.64 5.66 8 6 C5.23735711 6.59732819 2.83967231 7 0 7 C-0.93423645 3.98968256 -1.04449911 3.13349732 0 0 Z " fill="#272627" transform="translate(254,188)"/>
<path d="M0 0 C0 0.66 0 1.32 0 2 C1.65 2 3.3 2 5 2 C5 2.33 5 2.66 5 3 C-0.28 3 -5.56 3 -11 3 C-11 2.34 -11 1.68 -11 1 C-3.375 0 -3.375 0 0 0 Z " fill="#BD2735" transform="translate(88,48)"/>
<path d="M0 0 C4.455 0.99 4.455 0.99 9 2 C9.33 3.65 9.66 5.3 10 7 C5.04303419 5.76075855 2.88341534 4.21422242 0 0 Z " fill="#BF3640" transform="translate(141,148)"/>
<path d="M0 0 C0.33 0 0.66 0 1 0 C1.04898437 0.81984375 1.09796875 1.6396875 1.1484375 2.484375 C1.22320312 3.56203125 1.29796875 4.6396875 1.375 5.75 C1.44460938 6.81734375 1.51421875 7.8846875 1.5859375 8.984375 C1.9728223 11.80206432 2.55686166 13.5830366 4 16 C1 15 1 15 -0.25 13.0625 C-1.34186507 8.60405097 -0.64701035 4.50284228 0 0 Z " fill="#A2323D" transform="translate(359,138)"/>
<path d="M0 0 C4.2742558 1.5830577 6.26531794 4.50568404 9 8 C3.56603774 7.39622642 3.56603774 7.39622642 1.125 5.6875 C0 4 0 4 0 0 Z " fill="#B72D3E" transform="translate(154,127)"/>
<path d="M0 0 C2 1 2 1 2.75 2.75 C3.07158914 5.64430225 2.22746624 7.40065973 1 10 C0.01 9.67 -0.98 9.34 -2 9 C-1.34 6.03 -0.68 3.06 0 0 Z " fill="#CE272F" transform="translate(97,123)"/>
<path d="M0 0 C1.46224799 0.42423244 2.91973412 0.86490245 4.375 1.3125 C5.18710938 1.55613281 5.99921875 1.79976563 6.8359375 2.05078125 C9 3 9 3 11 6 C8.69 6 6.38 6 4 6 C3.67 5.01 3.34 4.02 3 3 C1.50014391 1.33289654 1.50014391 1.33289654 0 0 Z " fill="#BC3239" transform="translate(101,93)"/>
<path d="M0 0 C0.85659135 3.08084955 1.26941369 6.06792001 1.5625 9.25 C1.64628906 10.14203125 1.73007812 11.0340625 1.81640625 11.953125 C1.87699219 12.62859375 1.93757813 13.3040625 2 14 C-0.63829259 12.68085371 -0.98263229 11.76142665 -2 9 C-2.0777346 6.66796188 -2.08967728 4.33160941 -2 2 C-1.34 2 -0.68 2 0 2 C0 1.34 0 0.68 0 0 Z " fill="#E4232C" transform="translate(411,51)"/>
<path d="M0 0 C0.33 0.66 0.66 1.32 1 2 C2.98 2 4.96 2 7 2 C7.33 2.99 7.66 3.98 8 5 C5.69 5 3.38 5 1 5 C0.34 3.68 -0.32 2.36 -1 1 C-0.67 0.67 -0.34 0.34 0 0 Z " fill="#1A1A1D" transform="translate(126,192)"/>
<path d="M0 0 C0.99 0 1.98 0 3 0 C3 1.98 3 3.96 3 6 C1.35 6.66 -0.3 7.32 -2 8 C-1.34 5.36 -0.68 2.72 0 0 Z " fill="#F51627" transform="translate(201,100)"/>
<path d="M0 0 C0.99 0 1.98 0 3 0 C5.80255323 2.9063515 6 3.78825048 6 8 C5.34 8 4.68 8 4 8 C0 3.64705882 0 3.64705882 0 0 Z " fill="#D42333" transform="translate(426,48)"/>
<path d="M0 0 C2.75 -0.25 2.75 -0.25 6 0 C8.375 2 8.375 2 10 4 C7.8125 4.8125 7.8125 4.8125 5 5 C2.1875 2.5625 2.1875 2.5625 0 0 Z " fill="#C52D3B" transform="translate(288,150)"/>
<path d="M0 0 C0.66 0 1.32 0 2 0 C2 0.66 2 1.32 2 2 C2.66 2 3.32 2 4 2 C4.33 1.34 4.66 0.68 5 0 C5.99 2.97 6.98 5.94 8 9 C1.125 3.375 1.125 3.375 0 0 Z " fill="#BB313A" transform="translate(200,141)"/>
<path d="M0 0 C2.64 0 5.28 0 8 0 C8 0.66 8 1.32 8 2 C7.34 2 6.68 2 6 2 C6 2.66 6 3.32 6 4 C4.35 4 2.7 4 1 4 C0.67 2.68 0.34 1.36 0 0 Z " fill="#DE2128" transform="translate(312,138)"/>
<path d="M0 0 C1.98 0.66 3.96 1.32 6 2 C5.67 2.99 5.34 3.98 5 5 C4.01 4.67 3.02 4.34 2 4 C-0.33299825 3.96045766 -2.66708189 3.95598268 -5 4 C-2 2 -2 2 0 2 C0 1.34 0 0.68 0 0 Z " fill="#D51A24" transform="translate(76,49)"/>
<path d="M0 0 C1.32 0 2.64 0 4 0 C4.625 2.875 4.625 2.875 5 6 C4.34 6.66 3.68 7.32 3 8 C0 2.25 0 2.25 0 0 Z " fill="#191519" transform="translate(327,182)"/>
<path d="M0 0 C2.31 0.33 4.62 0.66 7 1 C7 3.31 7 5.62 7 8 C6.5875 7.360625 6.175 6.72125 5.75 6.0625 C3.82189513 3.79009069 2.88575819 3.39803561 0 3 C0 2.01 0 1.02 0 0 Z " fill="#242125" transform="translate(359,182)"/>
<path d="M0 0 C-1.75 2.0625 -1.75 2.0625 -4 4 C-6.1875 3.875 -6.1875 3.875 -8 3 C-8.33 2.34 -8.66 1.68 -9 1 C-5.8035914 -0.06546953 -3.34252724 -0.07427838 0 0 Z " fill="#C73141" transform="translate(257,151)"/>
<path d="M0 0 C0.33 0.66 0.66 1.32 1 2 C1.99 2 2.98 2 4 2 C3.67 2.99 3.34 3.98 3 5 C2.67 4.34 2.34 3.68 2 3 C1.34 3 0.68 3 0 3 C0 3.99 0 4.98 0 6 C-0.66 6 -1.32 6 -2 6 C-2 5.34 -2 4.68 -2 4 C-2.99 3.67 -3.98 3.34 -5 3 C-4.34 2.34 -3.68 1.68 -3 1 C-2.01 1.33 -1.02 1.66 0 2 C0 1.34 0 0.68 0 0 Z " fill="#DC212B" transform="translate(204,137)"/>
<path d="M0 0 C0.33 1.32 0.66 2.64 1 4 C1.99 4 2.98 4 4 4 C4.33 2.68 4.66 1.36 5 0 C4.67 2.31 4.34 4.62 4 7 C3.01 7.33 2.02 7.66 1 8 C-0.66411561 4.67176879 -1.08318916 3.61063054 0 0 Z " fill="#3D3C3F" transform="translate(155,187)"/>
<path d="M0 0 C1 3 1 3 -0.1875 5.625 C-2.20697432 8.27120773 -2.8793893 8.41851975 -6 9 C-5.38245741 7.68397477 -4.75571258 6.37226444 -4.125 5.0625 C-3.77695313 4.33160156 -3.42890625 3.60070312 -3.0703125 2.84765625 C-2 1 -2 1 0 0 Z " fill="#DB1E27" transform="translate(144,84)"/>
<path d="M0 0 C2.31 0 4.62 0 7 0 C7.33 0.99 7.66 1.98 8 3 C7 4 7 4 4.4375 4.0625 C3.2309375 4.0315625 3.2309375 4.0315625 2 4 C2.33 3.01 2.66 2.02 3 1 C2.01 0.67 1.02 0.34 0 0 Z " fill="#201D20" transform="translate(346,182)"/>
<path d="M0 0 C0.99 0.33 1.98 0.66 3 1 C1.02 3.31 -0.96 5.62 -3 8 C-3.66 7.67 -4.32 7.34 -5 7 C-3.35 4.69 -1.7 2.38 0 0 Z " fill="#AF3441" transform="translate(341,144)"/>
<path d="M0 0 C0.33 0 0.66 0 1 0 C1.66 4.29 2.32 8.58 3 13 C2.67 12.34 2.34 11.68 2 11 C1.01 10.67 0.02 10.34 -1 10 C-0.67 6.7 -0.34 3.4 0 0 Z " fill="#CA1F28" transform="translate(151,114)"/>
<path d="M0 0 C0.66 0 1.32 0 2 0 C1.30058404 3.14737182 0.23921302 6.02588876 -1 9 C-1.66 8.01 -2.32 7.02 -3 6 C-2 4 -1 2 0 0 Z " fill="#F1182A" transform="translate(150,106)"/>
<path d="M0 0 C0.66 0 1.32 0 2 0 C2 0.66 2 1.32 2 2 C2.66 2 3.32 2 4 2 C3.34 4.64 2.68 7.28 2 10 C1.67 10 1.34 10 1 10 C0.67 6.7 0.34 3.4 0 0 Z " fill="#DF2836" transform="translate(362,98)"/>
<path d="M0 0 C0.66 0 1.32 0 2 0 C2.33 1.98 2.66 3.96 3 6 C1.68 5.67 0.36 5.34 -1 5 C-0.67 3.35 -0.34 1.7 0 0 Z " fill="#1E1C1F" transform="translate(333,191)"/>
<path d="M0 0 C2 2 2 2 2.125 4.625 C2.08375 5.40875 2.0425 6.1925 2 7 C1.67 6.34 1.34 5.68 1 5 C0.01 5.33 -0.98 5.66 -2 6 C-2.66 5.67 -3.32 5.34 -4 5 C-4 4.34 -4 3.68 -4 3 C-3.01 2.67 -2.02 2.34 -1 2 C-0.67 1.34 -0.34 0.68 0 0 Z " fill="#D71D23" transform="translate(193,140)"/>
<path d="M0 0 C0.66 0.99 1.32 1.98 2 3 C1.67 3.33 1.34 3.66 1 4 C0.76924918 5.34747084 0.58846937 6.70377565 0.4375 8.0625 C0.2209375 10.0115625 0.2209375 10.0115625 0 12 C-2 10 -2 10 -2.01171875 8.125 C-1.90472656 7.42375 -1.79773438 6.7225 -1.6875 6 C-1.58824219 5.29875 -1.48898437 4.5975 -1.38671875 3.875 C-1 2 -1 2 0 0 Z " fill="#D01C2A" transform="translate(368,54)"/>
<path d="M0 0 C3.66666667 0 7.33333333 0 11 0 C10.34 1.32 9.68 2.64 9 4 C4.545 3.01 4.545 3.01 0 2 C0 1.34 0 0.68 0 0 Z " fill="#313133" transform="translate(127,192)"/>
<path d="M0 0 C2 1 2 1 3.125 4.0625 C3.41375 5.031875 3.7025 6.00125 4 7 C2.35 7.33 0.7 7.66 -1 8 C-0.67 5.36 -0.34 2.72 0 0 Z " fill="#49434A" transform="translate(327,184)"/>
<path d="M0 0 C0 3 0 3 -2 6 C-1.34 6 -0.68 6 0 6 C-0.33 6.99 -0.66 7.98 -1 9 C-1.99 8.67 -2.98 8.34 -4 8 C-3.50168276 4.31245243 -2.89932357 2.39509338 0 0 Z " fill="#DA1720" transform="translate(117,137)"/>
<path d="M0 0 C1.65 1.65 3.3 3.3 5 5 C4.67 5.66 4.34 6.32 4 7 C2.02 5.68 0.04 4.36 -2 3 C-1 1 -1 1 0 0 Z " fill="#B82C37" transform="translate(262,90)"/>
<path d="M0 0 C0.66 0 1.32 0 2 0 C1.67 1.65 1.34 3.3 1 5 C0.34 5 -0.32 5 -1 5 C-1.66 6.32 -2.32 7.64 -3 9 C-2.5020163 5.26512223 -2.12508244 3.18762365 0 0 Z " fill="#B53741" transform="translate(410,48)"/>
<path d="M0 0 C-2.33214148 1.20628008 -4.49642139 2.1654738 -7 3 C-7.33 3.66 -7.66 4.32 -8 5 C-8.99 4.34 -9.98 3.68 -11 3 C-7.14243493 0.84694043 -4.44870215 -0.39253254 0 0 Z " fill="#B53D47" transform="translate(423,44)"/>
<path d="M0 0 C0.66 0.99 1.32 1.98 2 3 C0.35 4.65 -1.3 6.3 -3 8 C-3.66 7.67 -4.32 7.34 -5 7 C-3.35 4.69 -1.7 2.38 0 0 Z " fill="#BE333B" transform="translate(193,145)"/>
<path d="M0 0 C1.32 0.33 2.64 0.66 4 1 C3.814375 1.5775 3.62875 2.155 3.4375 2.75 C2.95976454 5.20692525 3.24270636 6.64397534 4 9 C3.01 8.34 2.02 7.68 1 7 C0.3125 3.375 0.3125 3.375 0 0 Z " fill="#D91A23" transform="translate(137,137)"/>
<path d="M0 0 C0.33 0 0.66 0 1 0 C1 3.63 1 7.26 1 11 C-1 10 -1 10 -1.75 7.75 C-2.03830777 4.57861448 -1.37610249 2.83315218 0 0 Z " fill="#DD212E" transform="translate(296,113)"/>
<path d="M0 0 C3.2542015 2.83430453 4.5206753 4.68607774 5 9 C4.01 8.67 3.02 8.34 2 8 C1.26953125 6.15234375 1.26953125 6.15234375 0.8125 3.9375 C0.65394531 3.20402344 0.49539063 2.47054687 0.33203125 1.71484375 C0.22246094 1.14894531 0.11289062 0.58304687 0 0 Z " fill="#BB3942" transform="translate(344,92)"/>
<path d="M0 0 C0.268125 0.61875 0.53625 1.2375 0.8125 1.875 C1.95556848 4.2995233 1.95556848 4.2995233 5 6 C4.67 7.32 4.34 8.64 4 10 C0.06153846 5.69230769 0.06153846 5.69230769 -0.25 2.1875 C-0.1675 1.465625 -0.085 0.74375 0 0 Z " fill="#CF2028" transform="translate(52,91)"/>
<path d="M0 0 C0.66 0 1.32 0 2 0 C3.625 2 3.625 2 5 4 C4.34 4.66 3.68 5.32 3 6 C2.01 6 1.02 6 0 6 C-1.125 2.25 -1.125 2.25 0 0 Z " fill="#F3151F" transform="translate(249,83)"/>
<path d="M0 0 C0.66 0 1.32 0 2 0 C2.33 0.99 2.66 1.98 3 3 C3.66 3.66 4.32 4.32 5 5 C2.36 4.67 -0.28 4.34 -3 4 C-2.34 3.67 -1.68 3.34 -1 3 C-0.67 2.01 -0.34 1.02 0 0 Z " fill="#DA1F2A" transform="translate(69,53)"/>
<path d="M0 0 C8.57142857 -0.28571429 8.57142857 -0.28571429 12 2 C7.31034294 3.11658501 4.46236469 2.80619523 0 1 C0 0.67 0 0.34 0 0 Z " fill="#BD3C45" transform="translate(88,49)"/>
<path d="M0 0 C0.66 0.33 1.32 0.66 2 1 C2 1.99 2 2.98 2 4 C-0.64 4 -3.28 4 -6 4 C-4.03617993 2.49440461 -2.21736634 1.10868317 0 0 Z " fill="#141214" transform="translate(155,192)"/>
<path d="M0 0 C1.65 0 3.3 0 5 0 C5.33 0.99 5.66 1.98 6 3 C3.69 3 1.38 3 -1 3 C-0.67 2.01 -0.34 1.02 0 0 Z " fill="#3C373D" transform="translate(191,183)"/>
<path d="M0 0 C0.33 0.99 0.66 1.98 1 3 C-1.475 4.485 -1.475 4.485 -4 6 C-4.99 5.34 -5.98 4.68 -7 4 C-5.02 3.67 -3.04 3.34 -1 3 C-0.67 2.01 -0.34 1.02 0 0 Z " fill="#A7202C" transform="translate(433,152)"/>
<path d="M0 0 C0.66 0 1.32 0 2 0 C1.01 2.97 0.02 5.94 -1 9 C-1.33 9 -1.66 9 -2 9 C-1.125 1.125 -1.125 1.125 0 0 Z " fill="#AD313C" transform="translate(269,129)"/>
<path d="M0 0 C0.78375 0.185625 1.5675 0.37125 2.375 0.5625 C4.97089775 1.25962266 4.97089775 1.25962266 7 0 C7.33 1.32 7.66 2.64 8 4 C5.03 3.505 5.03 3.505 2 3 C2 2.34 2 1.68 2 1 C1.34 0.67 0.68 0.34 0 0 Z " fill="#D21A28" transform="translate(94,92)"/>
<path d="M0 0 C2.625 0.9375 2.625 0.9375 5 2 C4.01 2.495 4.01 2.495 3 3 C2.34786708 5.02463255 2.34786708 5.02463255 2 7 C1.67 5.35 1.34 3.7 1 2 C0.01 1.67 -0.98 1.34 -2 1 C-1.34 0.67 -0.68 0.34 0 0 Z " fill="#DA1D2C" transform="translate(176,76)"/>
<path d="M0 0 C-1.90401138 1.90401138 -3.33425686 2.93520439 -6.046875 3.19921875 C-8.03233273 3.1886578 -10.0169914 3.09915043 -12 3 C-12 2.67 -12 2.34 -12 2 C-7.8803623 0.70756464 -4.33168317 -0.26252625 0 0 Z " fill="#BC4452" transform="translate(428,69)"/>
</svg>
